<mxfile host="app.diagrams.net" agent="Mozilla/5.0 (Macintosh; Intel Mac OS X 10_15_7) AppleWebKit/537.36 (KHTML, like Gecko) Chrome/136.0.0.0 Safari/537.36" version="27.0.3">
  <diagram name="第 1 页" id="H-zNot_2gizYWFl9tbyM">
    <mxGraphModel dx="1072" dy="707" grid="1" gridSize="10" guides="1" tooltips="1" connect="1" arrows="1" fold="1" page="1" pageScale="1" pageWidth="827" pageHeight="1169" math="0" shadow="0">
      <root>
        <mxCell id="0" />
        <mxCell id="1" parent="0" />
        <mxCell id="YSEfwSpDA4RHuo-UK7Tc-77" value="" style="rounded=0;whiteSpace=wrap;html=1;fillColor=#ffe6cc;strokeColor=none;textOpacity=20;" vertex="1" parent="1">
          <mxGeometry x="600" y="370" width="400" height="150" as="geometry" />
        </mxCell>
        <mxCell id="YSEfwSpDA4RHuo-UK7Tc-115" style="edgeStyle=orthogonalEdgeStyle;rounded=0;orthogonalLoop=1;jettySize=auto;html=1;exitX=1.008;exitY=0.193;exitDx=0;exitDy=0;exitPerimeter=0;" edge="1" parent="1" source="YSEfwSpDA4RHuo-UK7Tc-23" target="YSEfwSpDA4RHuo-UK7Tc-32">
          <mxGeometry relative="1" as="geometry" />
        </mxCell>
        <mxCell id="YSEfwSpDA4RHuo-UK7Tc-23" value="&lt;b&gt;&lt;font style=&quot;font-size: 14px;&quot;&gt;CDC1.0(MySQL)&lt;/font&gt;&lt;/b&gt;" style="rounded=0;whiteSpace=wrap;html=1;dashed=1;verticalAlign=top;fillColor=#f5f5f5;fontColor=#333333;strokeColor=none;" vertex="1" parent="1">
          <mxGeometry x="140" y="690" width="310" height="250" as="geometry" />
        </mxCell>
        <mxCell id="YSEfwSpDA4RHuo-UK7Tc-22" value="&lt;b&gt;&lt;font style=&quot;font-size: 14px;&quot;&gt;Engagement(MySQL)&lt;/font&gt;&lt;/b&gt;" style="rounded=0;whiteSpace=wrap;html=1;dashed=1;verticalAlign=top;fillColor=#f5f5f5;fontColor=#333333;strokeColor=none;" vertex="1" parent="1">
          <mxGeometry x="150" y="1146" width="320" height="180" as="geometry" />
        </mxCell>
        <mxCell id="YSEfwSpDA4RHuo-UK7Tc-2" value="&lt;b&gt;&lt;font style=&quot;font-size: 14px;&quot;&gt;CRMBO&lt;/font&gt;&lt;/b&gt;" style="rounded=0;whiteSpace=wrap;html=1;dashed=1;verticalAlign=top;fillColor=#f5f5f5;fontColor=#333333;strokeColor=none;" vertex="1" parent="1">
          <mxGeometry x="898" y="900" width="290" height="370" as="geometry" />
        </mxCell>
        <mxCell id="YSEfwSpDA4RHuo-UK7Tc-15" value="&lt;p data-pm-slice=&quot;1 1 []&quot; data-prosemirror-node-block=&quot;true&quot; data-prosemirror-node-name=&quot;paragraph&quot; data-prosemirror-content-type=&quot;node&quot;&gt;AIMAS_ENGAGEMENT_APP_PUSH_RECORD&lt;br data-prosemirror-node-inline=&quot;true&quot; data-prosemirror-node-name=&quot;hardBreak&quot; data-prosemirror-content-type=&quot;node&quot;&gt;AIMAS_ENGAGEMENT_APP_PUSH_TRACKING_EVENT&lt;br data-prosemirror-node-inline=&quot;true&quot; data-prosemirror-node-name=&quot;hardBreak&quot; data-prosemirror-content-type=&quot;node&quot;&gt;AIMAS_ENGAGEMENT_EMAIL_RECORD&lt;br data-prosemirror-node-inline=&quot;true&quot; data-prosemirror-node-name=&quot;hardBreak&quot; data-prosemirror-content-type=&quot;node&quot;&gt;AIMAS_ENGAGEMENT_EMAIL_TRACKING_EVENT&lt;br data-prosemirror-node-inline=&quot;true&quot; data-prosemirror-node-name=&quot;hardBreak&quot; data-prosemirror-content-type=&quot;node&quot;&gt;AIMAS_ENGAGEMENT_IN_APP_PUSH_RECORD&lt;br data-prosemirror-node-inline=&quot;true&quot; data-prosemirror-node-name=&quot;hardBreak&quot; data-prosemirror-content-type=&quot;node&quot;&gt;AIMAS_ENGAGEMENT_SMS_RECORD&lt;/p&gt;" style="shape=cylinder3;whiteSpace=wrap;html=1;boundedLbl=1;backgroundOutline=1;size=15;fontSize=10;align=left;" vertex="1" parent="1">
          <mxGeometry x="182.5" y="1171" width="270" height="130" as="geometry" />
        </mxCell>
        <mxCell id="YSEfwSpDA4RHuo-UK7Tc-18" value="&lt;div&gt;&lt;br&gt;&lt;/div&gt;&lt;div&gt;&lt;span style=&quot;color: rgb(23, 43, 77); font-family: ui-monospace, Menlo, &amp;quot;Segoe UI Mono&amp;quot;, &amp;quot;Ubuntu Mono&amp;quot;, monospace; text-align: start; white-space: pre; background-color: rgba(9, 30, 66, 0.06);&quot;&gt;&lt;span style=&quot;font-family: -apple-system, &amp;quot;system-ui&amp;quot;, &amp;quot;Segoe UI&amp;quot;, Roboto, Oxygen, Ubuntu, &amp;quot;Fira Sans&amp;quot;, &amp;quot;Droid Sans&amp;quot;, &amp;quot;Helvetica Neue&amp;quot;, sans-serif; font-size: 14px; letter-spacing: -0.07px; text-wrap-mode: wrap; background-color: rgb(255, 255, 255);&quot;&gt;&lt;span style=&quot;letter-spacing: -0.07px;&quot;&gt;&lt;br&gt;&lt;/span&gt;&lt;/span&gt;&lt;/span&gt;&lt;/div&gt;&lt;div&gt;&lt;br&gt;&lt;/div&gt;&lt;div&gt;&lt;span style=&quot;color: rgb(23, 43, 77); font-family: ui-monospace, Menlo, &amp;quot;Segoe UI Mono&amp;quot;, &amp;quot;Ubuntu Mono&amp;quot;, monospace; text-align: start; white-space: pre; background-color: rgba(9, 30, 66, 0.06);&quot;&gt;&lt;span style=&quot;font-family: -apple-system, &amp;quot;system-ui&amp;quot;, &amp;quot;Segoe UI&amp;quot;, Roboto, Oxygen, Ubuntu, &amp;quot;Fira Sans&amp;quot;, &amp;quot;Droid Sans&amp;quot;, &amp;quot;Helvetica Neue&amp;quot;, sans-serif; font-size: 14px; letter-spacing: -0.07px; text-wrap-mode: wrap; background-color: rgb(255, 255, 255);&quot;&gt;&lt;span style=&quot;letter-spacing: -0.07px;&quot;&gt;&lt;br&gt;&lt;/span&gt;&lt;/span&gt;&lt;/span&gt;&lt;/div&gt;&lt;div&gt;&lt;br&gt;&lt;/div&gt;" style="shape=cylinder3;whiteSpace=wrap;html=1;boundedLbl=1;backgroundOutline=1;size=15;fontSize=10;" vertex="1" parent="1">
          <mxGeometry x="910" y="942.5" width="234.5" height="287.5" as="geometry" />
        </mxCell>
        <mxCell id="YSEfwSpDA4RHuo-UK7Tc-21" value="&lt;span style=&quot;color: rgb(23, 43, 77); font-family: -apple-system, &amp;quot;system-ui&amp;quot;, &amp;quot;Segoe UI&amp;quot;, Roboto, Oxygen, Ubuntu, &amp;quot;Fira Sans&amp;quot;, &amp;quot;Droid Sans&amp;quot;, &amp;quot;Helvetica Neue&amp;quot;, sans-serif; font-size: 14px; letter-spacing: -0.07px; white-space-collapse: preserve; background-color: rgb(255, 255, 255);&quot;&gt;CUSTOMER_CAMPAIGN_CONTACT&lt;/span&gt;&lt;div&gt;&lt;br style=&quot;box-sizing: border-box; color: rgb(23, 43, 77); font-family: -apple-system, &amp;quot;system-ui&amp;quot;, &amp;quot;Segoe UI&amp;quot;, Roboto, Oxygen, Ubuntu, &amp;quot;Fira Sans&amp;quot;, &amp;quot;Droid Sans&amp;quot;, &amp;quot;Helvetica Neue&amp;quot;, sans-serif; font-size: 14px; letter-spacing: -0.07px; white-space-collapse: preserve; background-color: rgb(255, 255, 255);&quot;&gt;&lt;span style=&quot;color: rgb(23, 43, 77); font-family: -apple-system, &amp;quot;system-ui&amp;quot;, &amp;quot;Segoe UI&amp;quot;, Roboto, Oxygen, Ubuntu, &amp;quot;Fira Sans&amp;quot;, &amp;quot;Droid Sans&amp;quot;, &amp;quot;Helvetica Neue&amp;quot;, sans-serif; font-size: 14px; letter-spacing: -0.07px; white-space-collapse: preserve; background-color: rgb(255, 255, 255);&quot;&gt;CUSTOMER_CAMPAIGN_TREATMENT&lt;/span&gt;&lt;/div&gt;&lt;div&gt;&lt;br style=&quot;box-sizing: border-box; color: rgb(23, 43, 77); font-family: -apple-system, &amp;quot;system-ui&amp;quot;, &amp;quot;Segoe UI&amp;quot;, Roboto, Oxygen, Ubuntu, &amp;quot;Fira Sans&amp;quot;, &amp;quot;Droid Sans&amp;quot;, &amp;quot;Helvetica Neue&amp;quot;, sans-serif; font-size: 14px; letter-spacing: -0.07px; white-space-collapse: preserve; background-color: rgb(255, 255, 255);&quot;&gt;&lt;span style=&quot;color: rgb(23, 43, 77); font-family: -apple-system, &amp;quot;system-ui&amp;quot;, &amp;quot;Segoe UI&amp;quot;, Roboto, Oxygen, Ubuntu, &amp;quot;Fira Sans&amp;quot;, &amp;quot;Droid Sans&amp;quot;, &amp;quot;Helvetica Neue&amp;quot;, sans-serif; font-size: 14px; letter-spacing: -0.07px; white-space-collapse: preserve; background-color: rgb(255, 255, 255);&quot;&gt;CUSTOMER_CAMPAIGN_OFFER&lt;/span&gt;&lt;/div&gt;&lt;div&gt;&lt;font face=&quot;-apple-system, system-ui, Segoe UI, Roboto, Oxygen, Ubuntu, Fira Sans, Droid Sans, Helvetica Neue, sans-serif&quot; color=&quot;#172b4d&quot;&gt;&lt;span style=&quot;font-size: 14px; letter-spacing: -0.07px; white-space-collapse: preserve;&quot;&gt;&lt;br&gt;&lt;/span&gt;&lt;/font&gt;&lt;div&gt;&lt;span style=&quot;color: rgb(23, 43, 77); font-family: -apple-system, &amp;quot;system-ui&amp;quot;, &amp;quot;Segoe UI&amp;quot;, Roboto, Oxygen, Ubuntu, &amp;quot;Fira Sans&amp;quot;, &amp;quot;Droid Sans&amp;quot;, &amp;quot;Helvetica Neue&amp;quot;, sans-serif; font-size: 14px; letter-spacing: -0.07px; white-space-collapse: preserve; background-color: rgb(255, 255, 255);&quot;&gt;CUSTOMER_BU&lt;/span&gt;&lt;span style=&quot;color: rgb(23, 43, 77); font-family: -apple-system, &amp;quot;system-ui&amp;quot;, &amp;quot;Segoe UI&amp;quot;, Roboto, Oxygen, Ubuntu, &amp;quot;Fira Sans&amp;quot;, &amp;quot;Droid Sans&amp;quot;, &amp;quot;Helvetica Neue&amp;quot;, sans-serif; font-size: 14px; letter-spacing: -0.07px; white-space-collapse: preserve; background-color: rgb(255, 255, 255);&quot;&gt;&lt;/span&gt;&lt;/div&gt;&lt;div&gt;&lt;span style=&quot;color: rgb(23, 43, 77); font-family: -apple-system, &amp;quot;system-ui&amp;quot;, &amp;quot;Segoe UI&amp;quot;, Roboto, Oxygen, Ubuntu, &amp;quot;Fira Sans&amp;quot;, &amp;quot;Droid Sans&amp;quot;, &amp;quot;Helvetica Neue&amp;quot;, sans-serif; font-size: 14px; letter-spacing: -0.07px; white-space-collapse: preserve; background-color: rgb(255, 255, 255);&quot;&gt;&lt;br&gt;&lt;/span&gt;&lt;/div&gt;&lt;div&gt;&lt;span style=&quot;color: rgb(23, 43, 77); font-family: -apple-system, &amp;quot;system-ui&amp;quot;, &amp;quot;Segoe UI&amp;quot;, Roboto, Oxygen, Ubuntu, &amp;quot;Fira Sans&amp;quot;, &amp;quot;Droid Sans&amp;quot;, &amp;quot;Helvetica Neue&amp;quot;, sans-serif; font-size: 14px; letter-spacing: -0.07px; white-space-collapse: preserve; background-color: rgb(255, 255, 255);&quot;&gt;&lt;span style=&quot;letter-spacing: -0.07px;&quot;&gt;CUSTOMER_MKOFFR_PROMO&lt;/span&gt;&lt;/span&gt;&lt;/div&gt;&lt;div&gt;&lt;span style=&quot;color: rgb(23, 43, 77); font-family: -apple-system, &amp;quot;system-ui&amp;quot;, &amp;quot;Segoe UI&amp;quot;, Roboto, Oxygen, Ubuntu, &amp;quot;Fira Sans&amp;quot;, &amp;quot;Droid Sans&amp;quot;, &amp;quot;Helvetica Neue&amp;quot;, sans-serif; font-size: 14px; letter-spacing: -0.07px; white-space-collapse: preserve; background-color: rgb(255, 255, 255);&quot;&gt;&lt;span style=&quot;letter-spacing: -0.07px;&quot;&gt;&lt;br&gt;&lt;/span&gt;&lt;/span&gt;&lt;/div&gt;&lt;div&gt;&lt;span style=&quot;color: rgb(23, 43, 77); font-family: -apple-system, &amp;quot;system-ui&amp;quot;, &amp;quot;Segoe UI&amp;quot;, Roboto, Oxygen, Ubuntu, &amp;quot;Fira Sans&amp;quot;, &amp;quot;Droid Sans&amp;quot;, &amp;quot;Helvetica Neue&amp;quot;, sans-serif; font-size: 14px; letter-spacing: -0.07px; white-space-collapse: preserve; background-color: rgb(255, 255, 255);&quot;&gt;&lt;span style=&quot;letter-spacing: -0.07px;&quot;&gt;CUSTOMER_USER&lt;/span&gt;&lt;span style=&quot;letter-spacing: -0.07px;&quot;&gt;&lt;/span&gt;&lt;/span&gt;&lt;/div&gt;&lt;/div&gt;&lt;div&gt;&lt;span style=&quot;color: rgb(23, 43, 77); font-family: -apple-system, &amp;quot;system-ui&amp;quot;, &amp;quot;Segoe UI&amp;quot;, Roboto, Oxygen, Ubuntu, &amp;quot;Fira Sans&amp;quot;, &amp;quot;Droid Sans&amp;quot;, &amp;quot;Helvetica Neue&amp;quot;, sans-serif; font-size: 14px; letter-spacing: -0.07px; white-space-collapse: preserve; background-color: rgb(255, 255, 255);&quot;&gt;&lt;span style=&quot;letter-spacing: -0.07px;&quot;&gt;&lt;br&gt;&lt;/span&gt;&lt;/span&gt;&lt;/div&gt;&lt;div&gt;&lt;span style=&quot;color: rgb(23, 43, 77); font-family: -apple-system, &amp;quot;system-ui&amp;quot;, &amp;quot;Segoe UI&amp;quot;, Roboto, Oxygen, Ubuntu, &amp;quot;Fira Sans&amp;quot;, &amp;quot;Droid Sans&amp;quot;, &amp;quot;Helvetica Neue&amp;quot;, sans-serif; font-size: 14px; letter-spacing: -0.07px; white-space-collapse: preserve; background-color: rgb(255, 255, 255);&quot;&gt;&lt;span style=&quot;letter-spacing: -0.07px;&quot;&gt;CUSTOMER_MKOFFR_PROMO&lt;/span&gt;&lt;span style=&quot;letter-spacing: -0.07px;&quot;&gt;&lt;/span&gt;&lt;/span&gt;&lt;/div&gt;" style="shape=cylinder3;whiteSpace=wrap;html=1;boundedLbl=1;backgroundOutline=1;size=15;fontSize=10;align=left;" vertex="1" parent="1">
          <mxGeometry x="170" y="720" width="250" height="250" as="geometry" />
        </mxCell>
        <mxCell id="YSEfwSpDA4RHuo-UK7Tc-24" value="&lt;b&gt;&lt;font style=&quot;font-size: 14px;&quot;&gt;Workflow(MySQL)&lt;/font&gt;&lt;/b&gt;" style="rounded=0;whiteSpace=wrap;html=1;dashed=1;verticalAlign=top;fillColor=#f5f5f5;fontColor=#333333;strokeColor=none;" vertex="1" parent="1">
          <mxGeometry x="155" y="1000" width="305" height="115" as="geometry" />
        </mxCell>
        <mxCell id="YSEfwSpDA4RHuo-UK7Tc-25" value="&lt;span style=&quot;color: rgb(23, 43, 77); font-family: ui-monospace, Menlo, &amp;quot;Segoe UI Mono&amp;quot;, &amp;quot;Ubuntu Mono&amp;quot;, monospace; font-size: 14px; white-space: pre; background-color: rgba(9, 30, 66, 0.06);&quot;&gt;AIMAS_CAMPAIGN_WORKFLOW_ELEMENT&lt;/span&gt;" style="shape=cylinder3;whiteSpace=wrap;html=1;boundedLbl=1;backgroundOutline=1;size=15;fontSize=10;align=left;" vertex="1" parent="1">
          <mxGeometry x="180" y="1030" width="265" height="65" as="geometry" />
        </mxCell>
        <mxCell id="YSEfwSpDA4RHuo-UK7Tc-26" value="&lt;div style=&quot;font-size: 10px;&quot;&gt;&lt;span style=&quot;letter-spacing: -0.07px; background-color: light-dark(rgb(255, 255, 255), rgb(18, 18, 18)); font-family: -apple-system, &amp;quot;system-ui&amp;quot;, &amp;quot;Segoe UI&amp;quot;, Roboto, Oxygen, Ubuntu, &amp;quot;Fira Sans&amp;quot;, &amp;quot;Droid Sans&amp;quot;, &amp;quot;Helvetica Neue&amp;quot;, sans-serif; font-size: 14px; white-space-collapse: preserve; color: light-dark(rgb(23, 43, 77), rgb(186, 203, 232)); text-align: start;&quot;&gt;STG_B_CAMP_OFFER&lt;/span&gt;&lt;/div&gt;" style="text;html=1;align=center;verticalAlign=middle;whiteSpace=wrap;rounded=0;fillColor=#f5f5f5;fontColor=#333333;strokeColor=#666666;dashed=1;" vertex="1" parent="1">
          <mxGeometry x="924.5" y="1020" width="210" height="30" as="geometry" />
        </mxCell>
        <mxCell id="YSEfwSpDA4RHuo-UK7Tc-27" value="&lt;div style=&quot;font-size: 10px;&quot;&gt;&lt;span style=&quot;background-color: light-dark(rgb(255, 255, 255), rgb(18, 18, 18)); color: light-dark(rgb(23, 43, 77), rgb(186, 203, 232)); font-family: -apple-system, &amp;quot;system-ui&amp;quot;, &amp;quot;Segoe UI&amp;quot;, Roboto, Oxygen, Ubuntu, &amp;quot;Fira Sans&amp;quot;, &amp;quot;Droid Sans&amp;quot;, &amp;quot;Helvetica Neue&amp;quot;, sans-serif; font-size: 14px; letter-spacing: -0.07px; text-align: left; white-space-collapse: preserve;&quot;&gt;STG_B_CAMP_CONTACT&lt;/span&gt;&lt;/div&gt;" style="text;html=1;align=center;verticalAlign=middle;whiteSpace=wrap;rounded=0;fillColor=#f5f5f5;fontColor=#333333;strokeColor=#666666;dashed=1;" vertex="1" parent="1">
          <mxGeometry x="924.5" y="1146" width="210" height="40" as="geometry" />
        </mxCell>
        <mxCell id="YSEfwSpDA4RHuo-UK7Tc-29" value="&lt;div style=&quot;font-size: 10px;&quot;&gt;&lt;span style=&quot;color: rgb(23, 43, 77); font-family: -apple-system, &amp;quot;system-ui&amp;quot;, &amp;quot;Segoe UI&amp;quot;, Roboto, Oxygen, Ubuntu, &amp;quot;Fira Sans&amp;quot;, &amp;quot;Droid Sans&amp;quot;, &amp;quot;Helvetica Neue&amp;quot;, sans-serif; font-size: 14px; letter-spacing: -0.07px; text-align: left; white-space-collapse: preserve; background-color: rgb(255, 255, 255);&quot;&gt;STG_B_OFFER_PROMO&lt;/span&gt;&lt;/div&gt;" style="text;html=1;align=center;verticalAlign=middle;whiteSpace=wrap;rounded=0;fillColor=#f5f5f5;fontColor=#333333;strokeColor=#666666;dashed=1;" vertex="1" parent="1">
          <mxGeometry x="924.5" y="980" width="210" height="30" as="geometry" />
        </mxCell>
        <mxCell id="YSEfwSpDA4RHuo-UK7Tc-116" style="edgeStyle=orthogonalEdgeStyle;rounded=0;orthogonalLoop=1;jettySize=auto;html=1;entryX=0;entryY=0.5;entryDx=0;entryDy=0;" edge="1" parent="1" source="YSEfwSpDA4RHuo-UK7Tc-32" target="YSEfwSpDA4RHuo-UK7Tc-29">
          <mxGeometry relative="1" as="geometry" />
        </mxCell>
        <mxCell id="YSEfwSpDA4RHuo-UK7Tc-32" value="CDC1.0 Sync Job" style="rounded=1;whiteSpace=wrap;html=1;arcSize=12;" vertex="1" parent="1">
          <mxGeometry x="710" y="790" width="82" height="50" as="geometry" />
        </mxCell>
        <mxCell id="YSEfwSpDA4RHuo-UK7Tc-36" value="CDC1.0 New Sync Job" style="rounded=1;whiteSpace=wrap;html=1;arcSize=12;" vertex="1" parent="1">
          <mxGeometry x="900" y="400" width="60" height="60" as="geometry" />
        </mxCell>
        <mxCell id="YSEfwSpDA4RHuo-UK7Tc-38" value="&lt;div style=&quot;font-size: 10px;&quot;&gt;&lt;span style=&quot;color: rgb(23, 43, 77); font-family: -apple-system, &amp;quot;system-ui&amp;quot;, &amp;quot;Segoe UI&amp;quot;, Roboto, Oxygen, Ubuntu, &amp;quot;Fira Sans&amp;quot;, &amp;quot;Droid Sans&amp;quot;, &amp;quot;Helvetica Neue&amp;quot;, sans-serif; font-size: 14px; letter-spacing: -0.07px; text-align: left; white-space-collapse: preserve; background-color: rgb(255, 255, 255);&quot;&gt;STG_B_CAMP_RESP&lt;/span&gt;&lt;/div&gt;" style="text;html=1;align=center;verticalAlign=middle;whiteSpace=wrap;rounded=0;fillColor=#f5f5f5;fontColor=#333333;strokeColor=#666666;dashed=1;" vertex="1" parent="1">
          <mxGeometry x="924.5" y="1075" width="210" height="40" as="geometry" />
        </mxCell>
        <mxCell id="YSEfwSpDA4RHuo-UK7Tc-51" value="" style="group" vertex="1" connectable="0" parent="1">
          <mxGeometry x="593" y="1020" width="70" height="80" as="geometry" />
        </mxCell>
        <mxCell id="YSEfwSpDA4RHuo-UK7Tc-49" value="" style="shape=cylinder3;whiteSpace=wrap;html=1;boundedLbl=1;backgroundOutline=1;size=15;" vertex="1" parent="YSEfwSpDA4RHuo-UK7Tc-51">
          <mxGeometry width="70" height="80" as="geometry" />
        </mxCell>
        <mxCell id="YSEfwSpDA4RHuo-UK7Tc-50" value="StarRocks" style="text;html=1;align=center;verticalAlign=middle;whiteSpace=wrap;rounded=0;" vertex="1" parent="YSEfwSpDA4RHuo-UK7Tc-51">
          <mxGeometry x="7" y="30" width="60" height="30" as="geometry" />
        </mxCell>
        <mxCell id="YSEfwSpDA4RHuo-UK7Tc-62" value="CIA Data" style="text;html=1;align=center;verticalAlign=middle;whiteSpace=wrap;rounded=0;" vertex="1" parent="1">
          <mxGeometry x="602" y="395" width="60" height="30" as="geometry" />
        </mxCell>
        <mxCell id="YSEfwSpDA4RHuo-UK7Tc-75" style="edgeStyle=orthogonalEdgeStyle;rounded=0;orthogonalLoop=1;jettySize=auto;html=1;" edge="1" parent="1" source="YSEfwSpDA4RHuo-UK7Tc-66">
          <mxGeometry relative="1" as="geometry">
            <mxPoint x="780" y="440" as="targetPoint" />
          </mxGeometry>
        </mxCell>
        <mxCell id="YSEfwSpDA4RHuo-UK7Tc-66" value="" style="rounded=0;whiteSpace=wrap;html=1;rotation=90;" vertex="1" parent="1">
          <mxGeometry x="652" y="410" width="80" height="60" as="geometry" />
        </mxCell>
        <mxCell id="YSEfwSpDA4RHuo-UK7Tc-67" value="External Catalog - Workflow" style="text;html=1;align=center;verticalAlign=middle;whiteSpace=wrap;rounded=0;" vertex="1" parent="1">
          <mxGeometry x="664" y="425" width="60" height="30" as="geometry" />
        </mxCell>
        <mxCell id="YSEfwSpDA4RHuo-UK7Tc-71" value="" style="group" vertex="1" connectable="0" parent="1">
          <mxGeometry x="780" y="400" width="70" height="80" as="geometry" />
        </mxCell>
        <mxCell id="YSEfwSpDA4RHuo-UK7Tc-72" value="" style="shape=cylinder3;whiteSpace=wrap;html=1;boundedLbl=1;backgroundOutline=1;size=15;" vertex="1" parent="YSEfwSpDA4RHuo-UK7Tc-71">
          <mxGeometry width="70" height="80" as="geometry" />
        </mxCell>
        <mxCell id="YSEfwSpDA4RHuo-UK7Tc-73" value="StarRocks" style="text;html=1;align=center;verticalAlign=middle;whiteSpace=wrap;rounded=0;" vertex="1" parent="YSEfwSpDA4RHuo-UK7Tc-71">
          <mxGeometry x="7" y="30" width="60" height="30" as="geometry" />
        </mxCell>
        <mxCell id="YSEfwSpDA4RHuo-UK7Tc-76" style="edgeStyle=orthogonalEdgeStyle;rounded=0;orthogonalLoop=1;jettySize=auto;html=1;entryX=0;entryY=0.5;entryDx=0;entryDy=0;" edge="1" parent="1" source="YSEfwSpDA4RHuo-UK7Tc-72" target="YSEfwSpDA4RHuo-UK7Tc-36">
          <mxGeometry relative="1" as="geometry" />
        </mxCell>
        <mxCell id="YSEfwSpDA4RHuo-UK7Tc-83" value="" style="group;fillColor=#d5e8d4;strokeColor=none;container=0;" vertex="1" connectable="0" parent="1">
          <mxGeometry x="482" y="806" width="62" height="80" as="geometry" />
        </mxCell>
        <mxCell id="YSEfwSpDA4RHuo-UK7Tc-84" value="" style="group;fillColor=#d5e8d4;strokeColor=none;container=0;" vertex="1" connectable="0" parent="1">
          <mxGeometry x="490" y="1210" width="62" height="80" as="geometry" />
        </mxCell>
        <mxCell id="YSEfwSpDA4RHuo-UK7Tc-86" value="" style="group;fontStyle=1;fillColor=#d5e8d4;strokeColor=none;container=0;" vertex="1" connectable="0" parent="1">
          <mxGeometry x="483" y="1020" width="62" height="80" as="geometry" />
        </mxCell>
        <mxCell id="YSEfwSpDA4RHuo-UK7Tc-39" value="" style="rounded=0;whiteSpace=wrap;html=1;rotation=90;container=0;fillColor=#dae8fc;strokeColor=none;" vertex="1" parent="1">
          <mxGeometry x="472" y="815" width="80" height="60" as="geometry" />
        </mxCell>
        <mxCell id="YSEfwSpDA4RHuo-UK7Tc-40" value="External Catalog - CDC" style="text;html=1;align=center;verticalAlign=middle;whiteSpace=wrap;rounded=0;container=0;" vertex="1" parent="1">
          <mxGeometry x="484" y="831" width="60" height="30" as="geometry" />
        </mxCell>
        <mxCell id="YSEfwSpDA4RHuo-UK7Tc-43" value="" style="rounded=0;whiteSpace=wrap;html=1;rotation=90;container=0;fillColor=#dae8fc;strokeColor=none;" vertex="1" parent="1">
          <mxGeometry x="480" y="1220" width="80" height="60" as="geometry" />
        </mxCell>
        <mxCell id="YSEfwSpDA4RHuo-UK7Tc-44" value="External Catalog - Engagement" style="text;html=1;align=center;verticalAlign=middle;whiteSpace=wrap;rounded=0;container=0;" vertex="1" parent="1">
          <mxGeometry x="492" y="1235" width="60" height="30" as="geometry" />
        </mxCell>
        <mxCell id="YSEfwSpDA4RHuo-UK7Tc-87" value="" style="rounded=0;whiteSpace=wrap;html=1;rotation=90;container=0;fillColor=#dae8fc;strokeColor=none;" vertex="1" parent="1">
          <mxGeometry x="473" y="1030" width="80" height="60" as="geometry" />
        </mxCell>
        <mxCell id="YSEfwSpDA4RHuo-UK7Tc-88" value="External Catalog - Workflow" style="text;html=1;align=center;verticalAlign=middle;whiteSpace=wrap;rounded=0;container=0;" vertex="1" parent="1">
          <mxGeometry x="485" y="1045" width="60" height="30" as="geometry" />
        </mxCell>
        <mxCell id="YSEfwSpDA4RHuo-UK7Tc-89" style="edgeStyle=orthogonalEdgeStyle;rounded=0;orthogonalLoop=1;jettySize=auto;html=1;entryX=0;entryY=0.5;entryDx=0;entryDy=0;entryPerimeter=0;" edge="1" parent="1" source="YSEfwSpDA4RHuo-UK7Tc-40" target="YSEfwSpDA4RHuo-UK7Tc-49">
          <mxGeometry relative="1" as="geometry" />
        </mxCell>
        <mxCell id="YSEfwSpDA4RHuo-UK7Tc-90" style="edgeStyle=orthogonalEdgeStyle;rounded=0;orthogonalLoop=1;jettySize=auto;html=1;entryX=0;entryY=0.5;entryDx=0;entryDy=0;entryPerimeter=0;" edge="1" parent="1" source="YSEfwSpDA4RHuo-UK7Tc-88" target="YSEfwSpDA4RHuo-UK7Tc-49">
          <mxGeometry relative="1" as="geometry" />
        </mxCell>
        <mxCell id="YSEfwSpDA4RHuo-UK7Tc-91" style="edgeStyle=orthogonalEdgeStyle;rounded=0;orthogonalLoop=1;jettySize=auto;html=1;entryX=0;entryY=0.5;entryDx=0;entryDy=0;entryPerimeter=0;" edge="1" parent="1" source="YSEfwSpDA4RHuo-UK7Tc-43" target="YSEfwSpDA4RHuo-UK7Tc-49">
          <mxGeometry relative="1" as="geometry" />
        </mxCell>
        <mxCell id="YSEfwSpDA4RHuo-UK7Tc-93" style="edgeStyle=orthogonalEdgeStyle;rounded=0;orthogonalLoop=1;jettySize=auto;html=1;" edge="1" parent="1">
          <mxGeometry relative="1" as="geometry">
            <mxPoint x="480" y="1060" as="targetPoint" />
            <mxPoint x="460" y="1060" as="sourcePoint" />
          </mxGeometry>
        </mxCell>
        <mxCell id="YSEfwSpDA4RHuo-UK7Tc-94" style="edgeStyle=orthogonalEdgeStyle;rounded=0;orthogonalLoop=1;jettySize=auto;html=1;" edge="1" parent="1">
          <mxGeometry relative="1" as="geometry">
            <mxPoint x="490" y="1250" as="targetPoint" />
            <mxPoint x="470" y="1250" as="sourcePoint" />
          </mxGeometry>
        </mxCell>
        <mxCell id="YSEfwSpDA4RHuo-UK7Tc-96" style="edgeStyle=orthogonalEdgeStyle;rounded=0;orthogonalLoop=1;jettySize=auto;html=1;" edge="1" parent="1">
          <mxGeometry relative="1" as="geometry">
            <mxPoint x="473" y="850" as="targetPoint" />
            <mxPoint x="453" y="850" as="sourcePoint" />
          </mxGeometry>
        </mxCell>
        <mxCell id="YSEfwSpDA4RHuo-UK7Tc-121" style="edgeStyle=orthogonalEdgeStyle;rounded=0;orthogonalLoop=1;jettySize=auto;html=1;entryX=0;entryY=0.5;entryDx=0;entryDy=0;" edge="1" parent="1" source="YSEfwSpDA4RHuo-UK7Tc-119" target="YSEfwSpDA4RHuo-UK7Tc-26">
          <mxGeometry relative="1" as="geometry" />
        </mxCell>
        <mxCell id="YSEfwSpDA4RHuo-UK7Tc-119" value="CDC1.0 Sync Job" style="rounded=1;whiteSpace=wrap;html=1;arcSize=12;" vertex="1" parent="1">
          <mxGeometry x="710" y="873" width="82" height="50" as="geometry" />
        </mxCell>
        <mxCell id="YSEfwSpDA4RHuo-UK7Tc-120" style="edgeStyle=orthogonalEdgeStyle;rounded=0;orthogonalLoop=1;jettySize=auto;html=1;entryX=0;entryY=0.5;entryDx=0;entryDy=0;" edge="1" parent="1" source="YSEfwSpDA4RHuo-UK7Tc-49" target="YSEfwSpDA4RHuo-UK7Tc-119">
          <mxGeometry relative="1" as="geometry" />
        </mxCell>
        <mxCell id="YSEfwSpDA4RHuo-UK7Tc-125" value="2" style="ellipse;whiteSpace=wrap;html=1;aspect=fixed;" vertex="1" parent="1">
          <mxGeometry x="880" y="1010" width="30" height="30" as="geometry" />
        </mxCell>
        <mxCell id="YSEfwSpDA4RHuo-UK7Tc-134" value="1" style="ellipse;whiteSpace=wrap;html=1;aspect=fixed;" vertex="1" parent="1">
          <mxGeometry x="880" y="960" width="30" height="30" as="geometry" />
        </mxCell>
        <mxCell id="YSEfwSpDA4RHuo-UK7Tc-135" value="3" style="ellipse;whiteSpace=wrap;html=1;aspect=fixed;" vertex="1" parent="1">
          <mxGeometry x="880" y="1065" width="30" height="30" as="geometry" />
        </mxCell>
        <mxCell id="YSEfwSpDA4RHuo-UK7Tc-138" value="4" style="ellipse;whiteSpace=wrap;html=1;aspect=fixed;" vertex="1" parent="1">
          <mxGeometry x="880" y="1139" width="30" height="30" as="geometry" />
        </mxCell>
        <mxCell id="YSEfwSpDA4RHuo-UK7Tc-141" value="1. CDC Table&lt;div&gt;&lt;span style=&quot;color: rgb(23, 43, 77); font-family: -apple-system, &amp;quot;system-ui&amp;quot;, &amp;quot;Segoe UI&amp;quot;, Roboto, Oxygen, Ubuntu, &amp;quot;Fira Sans&amp;quot;, &amp;quot;Droid Sans&amp;quot;, &amp;quot;Helvetica Neue&amp;quot;, sans-serif; font-size: 14px; letter-spacing: -0.07px; white-space-collapse: preserve; background-color: rgb(255, 255, 255);&quot;&gt;CUSTOMER_MKOFFR_PROMO&lt;/span&gt;&lt;br style=&quot;box-sizing: border-box; color: rgb(23, 43, 77); font-family: -apple-system, &amp;quot;system-ui&amp;quot;, &amp;quot;Segoe UI&amp;quot;, Roboto, Oxygen, Ubuntu, &amp;quot;Fira Sans&amp;quot;, &amp;quot;Droid Sans&amp;quot;, &amp;quot;Helvetica Neue&amp;quot;, sans-serif; font-size: 14px; letter-spacing: -0.07px; white-space-collapse: preserve; background-color: rgb(255, 255, 255);&quot;&gt;&lt;span style=&quot;color: rgb(23, 43, 77); font-family: -apple-system, &amp;quot;system-ui&amp;quot;, &amp;quot;Segoe UI&amp;quot;, Roboto, Oxygen, Ubuntu, &amp;quot;Fira Sans&amp;quot;, &amp;quot;Droid Sans&amp;quot;, &amp;quot;Helvetica Neue&amp;quot;, sans-serif; font-size: 14px; letter-spacing: -0.07px; white-space-collapse: preserve; background-color: rgb(255, 255, 255);&quot;&gt;CUSTOMER_MARKETING_OFFER&lt;/span&gt;&lt;br style=&quot;box-sizing: border-box; color: rgb(23, 43, 77); font-family: -apple-system, &amp;quot;system-ui&amp;quot;, &amp;quot;Segoe UI&amp;quot;, Roboto, Oxygen, Ubuntu, &amp;quot;Fira Sans&amp;quot;, &amp;quot;Droid Sans&amp;quot;, &amp;quot;Helvetica Neue&amp;quot;, sans-serif; font-size: 14px; letter-spacing: -0.07px; white-space-collapse: preserve; background-color: rgb(255, 255, 255);&quot;&gt;&lt;span style=&quot;color: rgb(23, 43, 77); font-family: -apple-system, &amp;quot;system-ui&amp;quot;, &amp;quot;Segoe UI&amp;quot;, Roboto, Oxygen, Ubuntu, &amp;quot;Fira Sans&amp;quot;, &amp;quot;Droid Sans&amp;quot;, &amp;quot;Helvetica Neue&amp;quot;, sans-serif; font-size: 14px; letter-spacing: -0.07px; white-space-collapse: preserve; background-color: rgb(255, 255, 255);&quot;&gt;CUSTOMER_USER&lt;/span&gt;&lt;br style=&quot;box-sizing: border-box; color: rgb(23, 43, 77); font-family: -apple-system, &amp;quot;system-ui&amp;quot;, &amp;quot;Segoe UI&amp;quot;, Roboto, Oxygen, Ubuntu, &amp;quot;Fira Sans&amp;quot;, &amp;quot;Droid Sans&amp;quot;, &amp;quot;Helvetica Neue&amp;quot;, sans-serif; font-size: 14px; letter-spacing: -0.07px; white-space-collapse: preserve; background-color: rgb(255, 255, 255);&quot;&gt;&lt;span style=&quot;color: rgb(23, 43, 77); font-family: -apple-system, &amp;quot;system-ui&amp;quot;, &amp;quot;Segoe UI&amp;quot;, Roboto, Oxygen, Ubuntu, &amp;quot;Fira Sans&amp;quot;, &amp;quot;Droid Sans&amp;quot;, &amp;quot;Helvetica Neue&amp;quot;, sans-serif; font-size: 14px; letter-spacing: -0.07px; white-space-collapse: preserve; background-color: rgb(255, 255, 255);&quot;&gt;CUSTOMER_BU&lt;/span&gt;&lt;/div&gt;" style="text;html=1;align=left;verticalAlign=top;whiteSpace=wrap;rounded=0;" vertex="1" parent="1">
          <mxGeometry x="194" y="1400" width="220" height="100" as="geometry" />
        </mxCell>
        <mxCell id="YSEfwSpDA4RHuo-UK7Tc-142" value="&lt;font face=&quot;Helvetica&quot;&gt;2. CDC Table&lt;/font&gt;&lt;div&gt;&lt;font face=&quot;Helvetica&quot;&gt;&lt;span style=&quot;color: rgb(23, 43, 77); font-size: 14px; letter-spacing: -0.07px; white-space-collapse: preserve; background-color: rgb(255, 255, 255);&quot;&gt;CUSTOMER_CAMPAIGN_OFFER&lt;/span&gt;&lt;br style=&quot;box-sizing: border-box; color: rgb(23, 43, 77); font-size: 14px; letter-spacing: -0.07px; white-space-collapse: preserve; background-color: rgb(255, 255, 255);&quot;&gt;&lt;span style=&quot;color: rgb(23, 43, 77); font-size: 14px; letter-spacing: -0.07px; white-space-collapse: preserve; background-color: rgb(255, 255, 255);&quot;&gt;CUSTOMER_MARKETING_OFFER&lt;/span&gt;&lt;br style=&quot;box-sizing: border-box; color: rgb(23, 43, 77); font-size: 14px; letter-spacing: -0.07px; white-space-collapse: preserve; background-color: rgb(255, 255, 255);&quot;&gt;&lt;span style=&quot;color: rgb(23, 43, 77); font-size: 14px; letter-spacing: -0.07px; white-space-collapse: preserve; background-color: rgb(255, 255, 255);&quot;&gt;CUSTOMER_CAMPAIGN&lt;/span&gt;&lt;br style=&quot;box-sizing: border-box; color: rgb(23, 43, 77); font-size: 14px; letter-spacing: -0.07px; white-space-collapse: preserve; background-color: rgb(255, 255, 255);&quot;&gt;&lt;span style=&quot;color: rgb(23, 43, 77); font-size: 14px; letter-spacing: -0.07px; white-space-collapse: preserve; background-color: rgb(255, 255, 255);&quot;&gt;CUSTOMER_BU&lt;/span&gt;&lt;/font&gt;&lt;/div&gt;&lt;div&gt;&lt;span style=&quot;color: rgb(23, 43, 77); font-size: 14px; letter-spacing: -0.07px; white-space-collapse: preserve; background-color: rgb(255, 255, 255);&quot;&gt;&lt;font face=&quot;Helvetica&quot;&gt;&lt;br&gt;&lt;/font&gt;&lt;/span&gt;&lt;/div&gt;&lt;div&gt;&lt;span style=&quot;color: rgb(23, 43, 77); font-size: 14px; letter-spacing: -0.07px; white-space-collapse: preserve; background-color: rgb(255, 255, 255);&quot;&gt;&lt;font face=&quot;Helvetica&quot;&gt;+&lt;/font&gt;&lt;/span&gt;&lt;/div&gt;&lt;div&gt;&lt;span style=&quot;color: rgb(23, 43, 77); font-size: 14px; letter-spacing: -0.07px; white-space-collapse: preserve; background-color: rgb(255, 255, 255);&quot;&gt;&lt;font face=&quot;Helvetica&quot;&gt;&lt;br&gt;&lt;/font&gt;&lt;/span&gt;&lt;/div&gt;&lt;div&gt;&lt;span style=&quot;color: rgb(23, 43, 77); font-size: 14px; letter-spacing: -0.07px; white-space-collapse: preserve; background-color: rgb(255, 255, 255);&quot;&gt;&lt;span style=&quot;letter-spacing: normal; text-wrap-mode: nowrap; background-color: rgba(9, 30, 66, 0.06);&quot;&gt;&lt;font face=&quot;Helvetica&quot;&gt;Workflow: AIMAS_CAMPAIGN_WORKFLOW_ELEMENT&lt;/font&gt;&lt;/span&gt;&lt;/span&gt;&lt;/div&gt;&lt;div&gt;&lt;span style=&quot;color: rgb(23, 43, 77); font-family: -apple-system, &amp;quot;system-ui&amp;quot;, &amp;quot;Segoe UI&amp;quot;, Roboto, Oxygen, Ubuntu, &amp;quot;Fira Sans&amp;quot;, &amp;quot;Droid Sans&amp;quot;, &amp;quot;Helvetica Neue&amp;quot;, sans-serif; font-size: 14px; letter-spacing: -0.07px; white-space-collapse: preserve; background-color: rgb(255, 255, 255);&quot;&gt;&lt;br&gt;&lt;/span&gt;&lt;/div&gt;" style="text;html=1;align=left;verticalAlign=top;whiteSpace=wrap;rounded=0;" vertex="1" parent="1">
          <mxGeometry x="194" y="1520" width="412.5" height="190" as="geometry" />
        </mxCell>
        <mxCell id="YSEfwSpDA4RHuo-UK7Tc-143" value="3. CDC Table&lt;div&gt;&lt;span style=&quot;color: rgb(23, 43, 77); font-family: -apple-system, &amp;quot;system-ui&amp;quot;, &amp;quot;Segoe UI&amp;quot;, Roboto, Oxygen, Ubuntu, &amp;quot;Fira Sans&amp;quot;, &amp;quot;Droid Sans&amp;quot;, &amp;quot;Helvetica Neue&amp;quot;, sans-serif; font-size: 14px; letter-spacing: -0.07px; white-space-collapse: preserve; background-color: rgb(255, 255, 255);&quot;&gt;CUSTOMER_COMMUNICATION&lt;/span&gt;&lt;br style=&quot;box-sizing: border-box; color: rgb(23, 43, 77); font-family: -apple-system, &amp;quot;system-ui&amp;quot;, &amp;quot;Segoe UI&amp;quot;, Roboto, Oxygen, Ubuntu, &amp;quot;Fira Sans&amp;quot;, &amp;quot;Droid Sans&amp;quot;, &amp;quot;Helvetica Neue&amp;quot;, sans-serif; font-size: 14px; letter-spacing: -0.07px; white-space-collapse: preserve; background-color: rgb(255, 255, 255);&quot;&gt;&lt;span style=&quot;color: rgb(23, 43, 77); font-family: -apple-system, &amp;quot;system-ui&amp;quot;, &amp;quot;Segoe UI&amp;quot;, Roboto, Oxygen, Ubuntu, &amp;quot;Fira Sans&amp;quot;, &amp;quot;Droid Sans&amp;quot;, &amp;quot;Helvetica Neue&amp;quot;, sans-serif; font-size: 14px; letter-spacing: -0.07px; white-space-collapse: preserve; background-color: rgb(255, 255, 255);&quot;&gt;CUSTOMER_CAMPAIGN_TREATMENT&lt;/span&gt;&lt;br style=&quot;box-sizing: border-box; color: rgb(23, 43, 77); font-family: -apple-system, &amp;quot;system-ui&amp;quot;, &amp;quot;Segoe UI&amp;quot;, Roboto, Oxygen, Ubuntu, &amp;quot;Fira Sans&amp;quot;, &amp;quot;Droid Sans&amp;quot;, &amp;quot;Helvetica Neue&amp;quot;, sans-serif; font-size: 14px; letter-spacing: -0.07px; white-space-collapse: preserve; background-color: rgb(255, 255, 255);&quot;&gt;&lt;span style=&quot;color: rgb(23, 43, 77); font-family: -apple-system, &amp;quot;system-ui&amp;quot;, &amp;quot;Segoe UI&amp;quot;, Roboto, Oxygen, Ubuntu, &amp;quot;Fira Sans&amp;quot;, &amp;quot;Droid Sans&amp;quot;, &amp;quot;Helvetica Neue&amp;quot;, sans-serif; font-size: 14px; letter-spacing: -0.07px; white-space-collapse: preserve; background-color: rgb(255, 255, 255);&quot;&gt;CUSTOMER_CAMPAIGN_OFFER&lt;/span&gt;&lt;br style=&quot;box-sizing: border-box; color: rgb(23, 43, 77); font-family: -apple-system, &amp;quot;system-ui&amp;quot;, &amp;quot;Segoe UI&amp;quot;, Roboto, Oxygen, Ubuntu, &amp;quot;Fira Sans&amp;quot;, &amp;quot;Droid Sans&amp;quot;, &amp;quot;Helvetica Neue&amp;quot;, sans-serif; font-size: 14px; letter-spacing: -0.07px; white-space-collapse: preserve; background-color: rgb(255, 255, 255);&quot;&gt;&lt;span style=&quot;color: rgb(23, 43, 77); font-family: -apple-system, &amp;quot;system-ui&amp;quot;, &amp;quot;Segoe UI&amp;quot;, Roboto, Oxygen, Ubuntu, &amp;quot;Fira Sans&amp;quot;, &amp;quot;Droid Sans&amp;quot;, &amp;quot;Helvetica Neue&amp;quot;, sans-serif; font-size: 14px; letter-spacing: -0.07px; white-space-collapse: preserve; background-color: rgb(255, 255, 255);&quot;&gt;CUSTOMER_COMM_DTL&lt;/span&gt;&lt;br style=&quot;box-sizing: border-box; color: rgb(23, 43, 77); font-family: -apple-system, &amp;quot;system-ui&amp;quot;, &amp;quot;Segoe UI&amp;quot;, Roboto, Oxygen, Ubuntu, &amp;quot;Fira Sans&amp;quot;, &amp;quot;Droid Sans&amp;quot;, &amp;quot;Helvetica Neue&amp;quot;, sans-serif; font-size: 14px; letter-spacing: -0.07px; white-space-collapse: preserve; background-color: rgb(255, 255, 255);&quot;&gt;&lt;span style=&quot;color: rgb(23, 43, 77); font-family: -apple-system, &amp;quot;system-ui&amp;quot;, &amp;quot;Segoe UI&amp;quot;, Roboto, Oxygen, Ubuntu, &amp;quot;Fira Sans&amp;quot;, &amp;quot;Droid Sans&amp;quot;, &amp;quot;Helvetica Neue&amp;quot;, sans-serif; font-size: 14px; letter-spacing: -0.07px; white-space-collapse: preserve; background-color: rgb(255, 255, 255);&quot;&gt;CUSTOMER_LST_OF_VAL&lt;/span&gt;&lt;br style=&quot;box-sizing: border-box; color: rgb(23, 43, 77); font-family: -apple-system, &amp;quot;system-ui&amp;quot;, &amp;quot;Segoe UI&amp;quot;, Roboto, Oxygen, Ubuntu, &amp;quot;Fira Sans&amp;quot;, &amp;quot;Droid Sans&amp;quot;, &amp;quot;Helvetica Neue&amp;quot;, sans-serif; font-size: 14px; letter-spacing: -0.07px; white-space-collapse: preserve; background-color: rgb(255, 255, 255);&quot;&gt;&lt;span style=&quot;color: rgb(23, 43, 77); font-family: -apple-system, &amp;quot;system-ui&amp;quot;, &amp;quot;Segoe UI&amp;quot;, Roboto, Oxygen, Ubuntu, &amp;quot;Fira Sans&amp;quot;, &amp;quot;Droid Sans&amp;quot;, &amp;quot;Helvetica Neue&amp;quot;, sans-serif; font-size: 14px; letter-spacing: -0.07px; white-space-collapse: preserve; background-color: rgb(255, 255, 255);&quot;&gt;CUSTOMER_BU&lt;/span&gt;&lt;/div&gt;&lt;div&gt;&lt;span style=&quot;color: rgb(23, 43, 77); font-family: -apple-system, &amp;quot;system-ui&amp;quot;, &amp;quot;Segoe UI&amp;quot;, Roboto, Oxygen, Ubuntu, &amp;quot;Fira Sans&amp;quot;, &amp;quot;Droid Sans&amp;quot;, &amp;quot;Helvetica Neue&amp;quot;, sans-serif; font-size: 14px; letter-spacing: -0.07px; white-space-collapse: preserve; background-color: rgb(255, 255, 255);&quot;&gt;&lt;br&gt;&lt;/span&gt;&lt;/div&gt;&lt;div&gt;&lt;span style=&quot;color: rgb(23, 43, 77); font-family: -apple-system, &amp;quot;system-ui&amp;quot;, &amp;quot;Segoe UI&amp;quot;, Roboto, Oxygen, Ubuntu, &amp;quot;Fira Sans&amp;quot;, &amp;quot;Droid Sans&amp;quot;, &amp;quot;Helvetica Neue&amp;quot;, sans-serif; font-size: 14px; letter-spacing: -0.07px; white-space-collapse: preserve; background-color: rgb(255, 255, 255);&quot;&gt;+&lt;/span&gt;&lt;/div&gt;&lt;div&gt;&lt;span style=&quot;color: rgb(23, 43, 77); font-family: -apple-system, &amp;quot;system-ui&amp;quot;, &amp;quot;Segoe UI&amp;quot;, Roboto, Oxygen, Ubuntu, &amp;quot;Fira Sans&amp;quot;, &amp;quot;Droid Sans&amp;quot;, &amp;quot;Helvetica Neue&amp;quot;, sans-serif; font-size: 14px; letter-spacing: -0.07px; white-space-collapse: preserve; background-color: rgb(255, 255, 255);&quot;&gt;&lt;br&gt;&lt;/span&gt;&lt;/div&gt;&lt;div&gt;&lt;span style=&quot;color: rgb(23, 43, 77); font-family: -apple-system, &amp;quot;system-ui&amp;quot;, &amp;quot;Segoe UI&amp;quot;, Roboto, Oxygen, Ubuntu, &amp;quot;Fira Sans&amp;quot;, &amp;quot;Droid Sans&amp;quot;, &amp;quot;Helvetica Neue&amp;quot;, sans-serif; font-size: 14px; letter-spacing: -0.07px; white-space-collapse: preserve; background-color: rgb(255, 255, 255);&quot;&gt;Engagement Table&lt;/span&gt;&lt;/div&gt;" style="text;html=1;align=left;verticalAlign=top;whiteSpace=wrap;rounded=0;" vertex="1" parent="1">
          <mxGeometry x="630" y="1400" width="220" height="100" as="geometry" />
        </mxCell>
        <mxCell id="YSEfwSpDA4RHuo-UK7Tc-144" value="4. CDC Table&lt;div&gt;&lt;font face=&quot;-apple-system, system-ui, Segoe UI, Roboto, Oxygen, Ubuntu, Fira Sans, Droid Sans, Helvetica Neue, sans-serif&quot; color=&quot;#172b4d&quot;&gt;&lt;span style=&quot;font-size: 14px; letter-spacing: -0.07px; white-space-collapse: preserve;&quot;&gt;CUSTOMER_CAMPAIGN_CONTACT&lt;br/&gt;CUSTOMER_CAMPAIGN_TREATMENT&lt;br/&gt;CUSTOMER_CAMPAIGN_OFFER&lt;br/&gt;CUSTOMER_CAMP_LD_WAVE&lt;br/&gt;CUSTOMER_CALL_LST&lt;br/&gt;CUSTOMER_BU&lt;/span&gt;&lt;/font&gt;&lt;/div&gt;&lt;div&gt;&lt;span style=&quot;color: rgb(23, 43, 77); font-family: -apple-system, &amp;quot;system-ui&amp;quot;, &amp;quot;Segoe UI&amp;quot;, Roboto, Oxygen, Ubuntu, &amp;quot;Fira Sans&amp;quot;, &amp;quot;Droid Sans&amp;quot;, &amp;quot;Helvetica Neue&amp;quot;, sans-serif; font-size: 14px; letter-spacing: -0.07px; white-space-collapse: preserve; background-color: rgb(255, 255, 255);&quot;&gt;&lt;br&gt;&lt;/span&gt;&lt;/div&gt;&lt;div&gt;&lt;span style=&quot;color: rgb(23, 43, 77); font-family: -apple-system, &amp;quot;system-ui&amp;quot;, &amp;quot;Segoe UI&amp;quot;, Roboto, Oxygen, Ubuntu, &amp;quot;Fira Sans&amp;quot;, &amp;quot;Droid Sans&amp;quot;, &amp;quot;Helvetica Neue&amp;quot;, sans-serif; font-size: 14px; letter-spacing: -0.07px; white-space-collapse: preserve; background-color: rgb(255, 255, 255);&quot;&gt;+&lt;/span&gt;&lt;/div&gt;&lt;div&gt;&lt;span style=&quot;color: rgb(23, 43, 77); font-family: -apple-system, &amp;quot;system-ui&amp;quot;, &amp;quot;Segoe UI&amp;quot;, Roboto, Oxygen, Ubuntu, &amp;quot;Fira Sans&amp;quot;, &amp;quot;Droid Sans&amp;quot;, &amp;quot;Helvetica Neue&amp;quot;, sans-serif; font-size: 14px; letter-spacing: -0.07px; white-space-collapse: preserve; background-color: rgb(255, 255, 255);&quot;&gt;&lt;br&gt;&lt;/span&gt;&lt;/div&gt;&lt;div&gt;&lt;span style=&quot;color: rgb(23, 43, 77); font-family: -apple-system, &amp;quot;system-ui&amp;quot;, &amp;quot;Segoe UI&amp;quot;, Roboto, Oxygen, Ubuntu, &amp;quot;Fira Sans&amp;quot;, &amp;quot;Droid Sans&amp;quot;, &amp;quot;Helvetica Neue&amp;quot;, sans-serif; font-size: 14px; letter-spacing: -0.07px; white-space-collapse: preserve; background-color: rgb(255, 255, 255);&quot;&gt;Engagement Table&lt;/span&gt;&lt;/div&gt;" style="text;html=1;align=left;verticalAlign=top;whiteSpace=wrap;rounded=0;" vertex="1" parent="1">
          <mxGeometry x="630" y="1654" width="220" height="100" as="geometry" />
        </mxCell>
        <mxCell id="YSEfwSpDA4RHuo-UK7Tc-146" value="" style="edgeStyle=orthogonalEdgeStyle;rounded=0;orthogonalLoop=1;jettySize=auto;html=1;entryX=0;entryY=0.5;entryDx=0;entryDy=0;" edge="1" parent="1" source="YSEfwSpDA4RHuo-UK7Tc-49" target="YSEfwSpDA4RHuo-UK7Tc-145">
          <mxGeometry relative="1" as="geometry">
            <mxPoint x="663" y="1060" as="sourcePoint" />
            <mxPoint x="925" y="1166" as="targetPoint" />
          </mxGeometry>
        </mxCell>
        <mxCell id="YSEfwSpDA4RHuo-UK7Tc-195" style="edgeStyle=orthogonalEdgeStyle;rounded=0;orthogonalLoop=1;jettySize=auto;html=1;entryX=0;entryY=0.5;entryDx=0;entryDy=0;" edge="1" parent="1" source="YSEfwSpDA4RHuo-UK7Tc-145" target="YSEfwSpDA4RHuo-UK7Tc-38">
          <mxGeometry relative="1" as="geometry" />
        </mxCell>
        <mxCell id="YSEfwSpDA4RHuo-UK7Tc-196" style="edgeStyle=orthogonalEdgeStyle;rounded=0;orthogonalLoop=1;jettySize=auto;html=1;entryX=0;entryY=0.75;entryDx=0;entryDy=0;" edge="1" parent="1" source="YSEfwSpDA4RHuo-UK7Tc-145" target="YSEfwSpDA4RHuo-UK7Tc-27">
          <mxGeometry relative="1" as="geometry" />
        </mxCell>
        <mxCell id="YSEfwSpDA4RHuo-UK7Tc-145" value="CDC1.0 Sync Job" style="rounded=1;whiteSpace=wrap;html=1;arcSize=12;" vertex="1" parent="1">
          <mxGeometry x="720" y="1035" width="82" height="50" as="geometry" />
        </mxCell>
        <mxCell id="YSEfwSpDA4RHuo-UK7Tc-147" style="edgeStyle=orthogonalEdgeStyle;rounded=0;orthogonalLoop=1;jettySize=auto;html=1;exitX=1.008;exitY=0.193;exitDx=0;exitDy=0;exitPerimeter=0;" edge="1" parent="1" source="YSEfwSpDA4RHuo-UK7Tc-148" target="YSEfwSpDA4RHuo-UK7Tc-160">
          <mxGeometry relative="1" as="geometry" />
        </mxCell>
        <mxCell id="YSEfwSpDA4RHuo-UK7Tc-148" value="&lt;b&gt;&lt;font style=&quot;font-size: 14px;&quot;&gt;CDC1.0(MySQL)&lt;/font&gt;&lt;/b&gt;" style="rounded=0;whiteSpace=wrap;html=1;dashed=1;verticalAlign=top;fillColor=#f5f5f5;fontColor=#333333;strokeColor=none;" vertex="1" parent="1">
          <mxGeometry x="150" y="1980" width="310" height="250" as="geometry" />
        </mxCell>
        <mxCell id="YSEfwSpDA4RHuo-UK7Tc-149" value="&lt;b&gt;&lt;font style=&quot;font-size: 14px;&quot;&gt;Engagement(MySQL)&lt;/font&gt;&lt;/b&gt;" style="rounded=0;whiteSpace=wrap;html=1;dashed=1;verticalAlign=top;fillColor=#f5f5f5;fontColor=#333333;strokeColor=none;" vertex="1" parent="1">
          <mxGeometry x="160" y="2436" width="320" height="180" as="geometry" />
        </mxCell>
        <mxCell id="YSEfwSpDA4RHuo-UK7Tc-150" value="&lt;b&gt;&lt;font style=&quot;font-size: 14px;&quot;&gt;CRMBO&lt;/font&gt;&lt;/b&gt;" style="rounded=0;whiteSpace=wrap;html=1;dashed=1;verticalAlign=top;fillColor=#f5f5f5;fontColor=#333333;strokeColor=none;" vertex="1" parent="1">
          <mxGeometry x="908" y="2190" width="290" height="370" as="geometry" />
        </mxCell>
        <mxCell id="YSEfwSpDA4RHuo-UK7Tc-151" value="&lt;p data-pm-slice=&quot;1 1 []&quot; data-prosemirror-node-block=&quot;true&quot; data-prosemirror-node-name=&quot;paragraph&quot; data-prosemirror-content-type=&quot;node&quot;&gt;AIMAS_ENGAGEMENT_APP_PUSH_RECORD&lt;br data-prosemirror-node-inline=&quot;true&quot; data-prosemirror-node-name=&quot;hardBreak&quot; data-prosemirror-content-type=&quot;node&quot;&gt;AIMAS_ENGAGEMENT_APP_PUSH_TRACKING_EVENT&lt;br data-prosemirror-node-inline=&quot;true&quot; data-prosemirror-node-name=&quot;hardBreak&quot; data-prosemirror-content-type=&quot;node&quot;&gt;AIMAS_ENGAGEMENT_EMAIL_RECORD&lt;br data-prosemirror-node-inline=&quot;true&quot; data-prosemirror-node-name=&quot;hardBreak&quot; data-prosemirror-content-type=&quot;node&quot;&gt;AIMAS_ENGAGEMENT_EMAIL_TRACKING_EVENT&lt;br data-prosemirror-node-inline=&quot;true&quot; data-prosemirror-node-name=&quot;hardBreak&quot; data-prosemirror-content-type=&quot;node&quot;&gt;AIMAS_ENGAGEMENT_IN_APP_PUSH_RECORD&lt;br data-prosemirror-node-inline=&quot;true&quot; data-prosemirror-node-name=&quot;hardBreak&quot; data-prosemirror-content-type=&quot;node&quot;&gt;AIMAS_ENGAGEMENT_SMS_RECORD&lt;/p&gt;" style="shape=cylinder3;whiteSpace=wrap;html=1;boundedLbl=1;backgroundOutline=1;size=15;fontSize=10;align=left;" vertex="1" parent="1">
          <mxGeometry x="192.5" y="2461" width="270" height="130" as="geometry" />
        </mxCell>
        <mxCell id="YSEfwSpDA4RHuo-UK7Tc-152" value="&lt;div&gt;&lt;br&gt;&lt;/div&gt;&lt;div&gt;&lt;span style=&quot;color: rgb(23, 43, 77); font-family: ui-monospace, Menlo, &amp;quot;Segoe UI Mono&amp;quot;, &amp;quot;Ubuntu Mono&amp;quot;, monospace; text-align: start; white-space: pre; background-color: rgba(9, 30, 66, 0.06);&quot;&gt;&lt;span style=&quot;font-family: -apple-system, &amp;quot;system-ui&amp;quot;, &amp;quot;Segoe UI&amp;quot;, Roboto, Oxygen, Ubuntu, &amp;quot;Fira Sans&amp;quot;, &amp;quot;Droid Sans&amp;quot;, &amp;quot;Helvetica Neue&amp;quot;, sans-serif; font-size: 14px; letter-spacing: -0.07px; text-wrap-mode: wrap; background-color: rgb(255, 255, 255);&quot;&gt;&lt;span style=&quot;letter-spacing: -0.07px;&quot;&gt;&lt;br&gt;&lt;/span&gt;&lt;/span&gt;&lt;/span&gt;&lt;/div&gt;&lt;div&gt;&lt;br&gt;&lt;/div&gt;&lt;div&gt;&lt;span style=&quot;color: rgb(23, 43, 77); font-family: ui-monospace, Menlo, &amp;quot;Segoe UI Mono&amp;quot;, &amp;quot;Ubuntu Mono&amp;quot;, monospace; text-align: start; white-space: pre; background-color: rgba(9, 30, 66, 0.06);&quot;&gt;&lt;span style=&quot;font-family: -apple-system, &amp;quot;system-ui&amp;quot;, &amp;quot;Segoe UI&amp;quot;, Roboto, Oxygen, Ubuntu, &amp;quot;Fira Sans&amp;quot;, &amp;quot;Droid Sans&amp;quot;, &amp;quot;Helvetica Neue&amp;quot;, sans-serif; font-size: 14px; letter-spacing: -0.07px; text-wrap-mode: wrap; background-color: rgb(255, 255, 255);&quot;&gt;&lt;span style=&quot;letter-spacing: -0.07px;&quot;&gt;&lt;br&gt;&lt;/span&gt;&lt;/span&gt;&lt;/span&gt;&lt;/div&gt;&lt;div&gt;&lt;br&gt;&lt;/div&gt;" style="shape=cylinder3;whiteSpace=wrap;html=1;boundedLbl=1;backgroundOutline=1;size=15;fontSize=10;" vertex="1" parent="1">
          <mxGeometry x="920" y="2232.5" width="234.5" height="287.5" as="geometry" />
        </mxCell>
        <mxCell id="YSEfwSpDA4RHuo-UK7Tc-153" value="&lt;span style=&quot;color: rgb(23, 43, 77); font-family: -apple-system, &amp;quot;system-ui&amp;quot;, &amp;quot;Segoe UI&amp;quot;, Roboto, Oxygen, Ubuntu, &amp;quot;Fira Sans&amp;quot;, &amp;quot;Droid Sans&amp;quot;, &amp;quot;Helvetica Neue&amp;quot;, sans-serif; font-size: 14px; letter-spacing: -0.07px; white-space-collapse: preserve; background-color: rgb(255, 255, 255);&quot;&gt;CUSTOMER_CAMPAIGN_CONTACT&lt;/span&gt;&lt;div&gt;&lt;br style=&quot;box-sizing: border-box; color: rgb(23, 43, 77); font-family: -apple-system, &amp;quot;system-ui&amp;quot;, &amp;quot;Segoe UI&amp;quot;, Roboto, Oxygen, Ubuntu, &amp;quot;Fira Sans&amp;quot;, &amp;quot;Droid Sans&amp;quot;, &amp;quot;Helvetica Neue&amp;quot;, sans-serif; font-size: 14px; letter-spacing: -0.07px; white-space-collapse: preserve; background-color: rgb(255, 255, 255);&quot;&gt;&lt;span style=&quot;color: rgb(23, 43, 77); font-family: -apple-system, &amp;quot;system-ui&amp;quot;, &amp;quot;Segoe UI&amp;quot;, Roboto, Oxygen, Ubuntu, &amp;quot;Fira Sans&amp;quot;, &amp;quot;Droid Sans&amp;quot;, &amp;quot;Helvetica Neue&amp;quot;, sans-serif; font-size: 14px; letter-spacing: -0.07px; white-space-collapse: preserve; background-color: rgb(255, 255, 255);&quot;&gt;CUSTOMER_CAMPAIGN_TREATMENT&lt;/span&gt;&lt;/div&gt;&lt;div&gt;&lt;br style=&quot;box-sizing: border-box; color: rgb(23, 43, 77); font-family: -apple-system, &amp;quot;system-ui&amp;quot;, &amp;quot;Segoe UI&amp;quot;, Roboto, Oxygen, Ubuntu, &amp;quot;Fira Sans&amp;quot;, &amp;quot;Droid Sans&amp;quot;, &amp;quot;Helvetica Neue&amp;quot;, sans-serif; font-size: 14px; letter-spacing: -0.07px; white-space-collapse: preserve; background-color: rgb(255, 255, 255);&quot;&gt;&lt;span style=&quot;color: rgb(23, 43, 77); font-family: -apple-system, &amp;quot;system-ui&amp;quot;, &amp;quot;Segoe UI&amp;quot;, Roboto, Oxygen, Ubuntu, &amp;quot;Fira Sans&amp;quot;, &amp;quot;Droid Sans&amp;quot;, &amp;quot;Helvetica Neue&amp;quot;, sans-serif; font-size: 14px; letter-spacing: -0.07px; white-space-collapse: preserve; background-color: rgb(255, 255, 255);&quot;&gt;CUSTOMER_CAMPAIGN_OFFER&lt;/span&gt;&lt;/div&gt;&lt;div&gt;&lt;font face=&quot;-apple-system, system-ui, Segoe UI, Roboto, Oxygen, Ubuntu, Fira Sans, Droid Sans, Helvetica Neue, sans-serif&quot; color=&quot;#172b4d&quot;&gt;&lt;span style=&quot;font-size: 14px; letter-spacing: -0.07px; white-space-collapse: preserve;&quot;&gt;&lt;br&gt;&lt;/span&gt;&lt;/font&gt;&lt;div&gt;&lt;span style=&quot;color: rgb(23, 43, 77); font-family: -apple-system, &amp;quot;system-ui&amp;quot;, &amp;quot;Segoe UI&amp;quot;, Roboto, Oxygen, Ubuntu, &amp;quot;Fira Sans&amp;quot;, &amp;quot;Droid Sans&amp;quot;, &amp;quot;Helvetica Neue&amp;quot;, sans-serif; font-size: 14px; letter-spacing: -0.07px; white-space-collapse: preserve; background-color: rgb(255, 255, 255);&quot;&gt;CUSTOMER_BU&lt;/span&gt;&lt;span style=&quot;color: rgb(23, 43, 77); font-family: -apple-system, &amp;quot;system-ui&amp;quot;, &amp;quot;Segoe UI&amp;quot;, Roboto, Oxygen, Ubuntu, &amp;quot;Fira Sans&amp;quot;, &amp;quot;Droid Sans&amp;quot;, &amp;quot;Helvetica Neue&amp;quot;, sans-serif; font-size: 14px; letter-spacing: -0.07px; white-space-collapse: preserve; background-color: rgb(255, 255, 255);&quot;&gt;&lt;/span&gt;&lt;/div&gt;&lt;div&gt;&lt;span style=&quot;color: rgb(23, 43, 77); font-family: -apple-system, &amp;quot;system-ui&amp;quot;, &amp;quot;Segoe UI&amp;quot;, Roboto, Oxygen, Ubuntu, &amp;quot;Fira Sans&amp;quot;, &amp;quot;Droid Sans&amp;quot;, &amp;quot;Helvetica Neue&amp;quot;, sans-serif; font-size: 14px; letter-spacing: -0.07px; white-space-collapse: preserve; background-color: rgb(255, 255, 255);&quot;&gt;&lt;br&gt;&lt;/span&gt;&lt;/div&gt;&lt;div&gt;&lt;span style=&quot;color: rgb(23, 43, 77); font-family: -apple-system, &amp;quot;system-ui&amp;quot;, &amp;quot;Segoe UI&amp;quot;, Roboto, Oxygen, Ubuntu, &amp;quot;Fira Sans&amp;quot;, &amp;quot;Droid Sans&amp;quot;, &amp;quot;Helvetica Neue&amp;quot;, sans-serif; font-size: 14px; letter-spacing: -0.07px; white-space-collapse: preserve; background-color: rgb(255, 255, 255);&quot;&gt;&lt;span style=&quot;letter-spacing: -0.07px;&quot;&gt;CUSTOMER_MKOFFR_PROMO&lt;/span&gt;&lt;/span&gt;&lt;/div&gt;&lt;div&gt;&lt;span style=&quot;color: rgb(23, 43, 77); font-family: -apple-system, &amp;quot;system-ui&amp;quot;, &amp;quot;Segoe UI&amp;quot;, Roboto, Oxygen, Ubuntu, &amp;quot;Fira Sans&amp;quot;, &amp;quot;Droid Sans&amp;quot;, &amp;quot;Helvetica Neue&amp;quot;, sans-serif; font-size: 14px; letter-spacing: -0.07px; white-space-collapse: preserve; background-color: rgb(255, 255, 255);&quot;&gt;&lt;span style=&quot;letter-spacing: -0.07px;&quot;&gt;&lt;br&gt;&lt;/span&gt;&lt;/span&gt;&lt;/div&gt;&lt;div&gt;&lt;span style=&quot;color: rgb(23, 43, 77); font-family: -apple-system, &amp;quot;system-ui&amp;quot;, &amp;quot;Segoe UI&amp;quot;, Roboto, Oxygen, Ubuntu, &amp;quot;Fira Sans&amp;quot;, &amp;quot;Droid Sans&amp;quot;, &amp;quot;Helvetica Neue&amp;quot;, sans-serif; font-size: 14px; letter-spacing: -0.07px; white-space-collapse: preserve; background-color: rgb(255, 255, 255);&quot;&gt;&lt;span style=&quot;letter-spacing: -0.07px;&quot;&gt;CUSTOMER_USER&lt;/span&gt;&lt;span style=&quot;letter-spacing: -0.07px;&quot;&gt;&lt;/span&gt;&lt;/span&gt;&lt;/div&gt;&lt;/div&gt;&lt;div&gt;&lt;span style=&quot;color: rgb(23, 43, 77); font-family: -apple-system, &amp;quot;system-ui&amp;quot;, &amp;quot;Segoe UI&amp;quot;, Roboto, Oxygen, Ubuntu, &amp;quot;Fira Sans&amp;quot;, &amp;quot;Droid Sans&amp;quot;, &amp;quot;Helvetica Neue&amp;quot;, sans-serif; font-size: 14px; letter-spacing: -0.07px; white-space-collapse: preserve; background-color: rgb(255, 255, 255);&quot;&gt;&lt;span style=&quot;letter-spacing: -0.07px;&quot;&gt;&lt;br&gt;&lt;/span&gt;&lt;/span&gt;&lt;/div&gt;&lt;div&gt;&lt;span style=&quot;color: rgb(23, 43, 77); font-family: -apple-system, &amp;quot;system-ui&amp;quot;, &amp;quot;Segoe UI&amp;quot;, Roboto, Oxygen, Ubuntu, &amp;quot;Fira Sans&amp;quot;, &amp;quot;Droid Sans&amp;quot;, &amp;quot;Helvetica Neue&amp;quot;, sans-serif; font-size: 14px; letter-spacing: -0.07px; white-space-collapse: preserve; background-color: rgb(255, 255, 255);&quot;&gt;&lt;span style=&quot;letter-spacing: -0.07px;&quot;&gt;CUSTOMER_MKOFFR_PROMO&lt;/span&gt;&lt;span style=&quot;letter-spacing: -0.07px;&quot;&gt;&lt;/span&gt;&lt;/span&gt;&lt;/div&gt;" style="shape=cylinder3;whiteSpace=wrap;html=1;boundedLbl=1;backgroundOutline=1;size=15;fontSize=10;align=left;" vertex="1" parent="1">
          <mxGeometry x="180" y="2010" width="250" height="250" as="geometry" />
        </mxCell>
        <mxCell id="YSEfwSpDA4RHuo-UK7Tc-154" value="&lt;b&gt;&lt;font style=&quot;font-size: 14px;&quot;&gt;Workflow(MySQL)&lt;/font&gt;&lt;/b&gt;" style="rounded=0;whiteSpace=wrap;html=1;dashed=1;verticalAlign=top;fillColor=#f5f5f5;fontColor=#333333;strokeColor=none;" vertex="1" parent="1">
          <mxGeometry x="165" y="2290" width="305" height="115" as="geometry" />
        </mxCell>
        <mxCell id="YSEfwSpDA4RHuo-UK7Tc-155" value="&lt;span style=&quot;color: rgb(23, 43, 77); font-family: ui-monospace, Menlo, &amp;quot;Segoe UI Mono&amp;quot;, &amp;quot;Ubuntu Mono&amp;quot;, monospace; font-size: 14px; white-space: pre; background-color: rgba(9, 30, 66, 0.06);&quot;&gt;AIMAS_CAMPAIGN_WORKFLOW_ELEMENT&lt;/span&gt;" style="shape=cylinder3;whiteSpace=wrap;html=1;boundedLbl=1;backgroundOutline=1;size=15;fontSize=10;align=left;" vertex="1" parent="1">
          <mxGeometry x="190" y="2320" width="265" height="65" as="geometry" />
        </mxCell>
        <mxCell id="YSEfwSpDA4RHuo-UK7Tc-156" value="&lt;div style=&quot;font-size: 10px;&quot;&gt;&lt;span style=&quot;letter-spacing: -0.07px; background-color: light-dark(rgb(255, 255, 255), rgb(18, 18, 18)); font-family: -apple-system, &amp;quot;system-ui&amp;quot;, &amp;quot;Segoe UI&amp;quot;, Roboto, Oxygen, Ubuntu, &amp;quot;Fira Sans&amp;quot;, &amp;quot;Droid Sans&amp;quot;, &amp;quot;Helvetica Neue&amp;quot;, sans-serif; font-size: 14px; white-space-collapse: preserve; color: light-dark(rgb(23, 43, 77), rgb(186, 203, 232)); text-align: start;&quot;&gt;STG_B_CAMP_OFFER&lt;/span&gt;&lt;/div&gt;" style="text;html=1;align=center;verticalAlign=middle;whiteSpace=wrap;rounded=0;fillColor=#f5f5f5;fontColor=#333333;strokeColor=#666666;dashed=1;" vertex="1" parent="1">
          <mxGeometry x="934.5" y="2310" width="210" height="30" as="geometry" />
        </mxCell>
        <mxCell id="YSEfwSpDA4RHuo-UK7Tc-157" value="&lt;div style=&quot;font-size: 10px;&quot;&gt;&lt;span style=&quot;background-color: light-dark(rgb(255, 255, 255), rgb(18, 18, 18)); color: light-dark(rgb(23, 43, 77), rgb(186, 203, 232)); font-family: -apple-system, &amp;quot;system-ui&amp;quot;, &amp;quot;Segoe UI&amp;quot;, Roboto, Oxygen, Ubuntu, &amp;quot;Fira Sans&amp;quot;, &amp;quot;Droid Sans&amp;quot;, &amp;quot;Helvetica Neue&amp;quot;, sans-serif; font-size: 14px; letter-spacing: -0.07px; text-align: left; white-space-collapse: preserve;&quot;&gt;STG_B_CAMP_CONTACT&lt;/span&gt;&lt;/div&gt;" style="text;html=1;align=center;verticalAlign=middle;whiteSpace=wrap;rounded=0;fillColor=#f5f5f5;fontColor=#333333;strokeColor=#666666;dashed=1;" vertex="1" parent="1">
          <mxGeometry x="934.5" y="2436" width="210" height="40" as="geometry" />
        </mxCell>
        <mxCell id="YSEfwSpDA4RHuo-UK7Tc-158" value="&lt;div style=&quot;font-size: 10px;&quot;&gt;&lt;span style=&quot;color: rgb(23, 43, 77); font-family: -apple-system, &amp;quot;system-ui&amp;quot;, &amp;quot;Segoe UI&amp;quot;, Roboto, Oxygen, Ubuntu, &amp;quot;Fira Sans&amp;quot;, &amp;quot;Droid Sans&amp;quot;, &amp;quot;Helvetica Neue&amp;quot;, sans-serif; font-size: 14px; letter-spacing: -0.07px; text-align: left; white-space-collapse: preserve; background-color: rgb(255, 255, 255);&quot;&gt;STG_B_OFFER_PROMO&lt;/span&gt;&lt;/div&gt;" style="text;html=1;align=center;verticalAlign=middle;whiteSpace=wrap;rounded=0;fillColor=#f5f5f5;fontColor=#333333;strokeColor=#666666;dashed=1;" vertex="1" parent="1">
          <mxGeometry x="934.5" y="2270" width="210" height="30" as="geometry" />
        </mxCell>
        <mxCell id="YSEfwSpDA4RHuo-UK7Tc-159" style="edgeStyle=orthogonalEdgeStyle;rounded=0;orthogonalLoop=1;jettySize=auto;html=1;entryX=0;entryY=0.5;entryDx=0;entryDy=0;" edge="1" parent="1" source="YSEfwSpDA4RHuo-UK7Tc-160" target="YSEfwSpDA4RHuo-UK7Tc-158">
          <mxGeometry relative="1" as="geometry" />
        </mxCell>
        <mxCell id="YSEfwSpDA4RHuo-UK7Tc-197" style="edgeStyle=orthogonalEdgeStyle;rounded=0;orthogonalLoop=1;jettySize=auto;html=1;entryX=0;entryY=0.5;entryDx=0;entryDy=0;" edge="1" parent="1" source="YSEfwSpDA4RHuo-UK7Tc-160" target="YSEfwSpDA4RHuo-UK7Tc-156">
          <mxGeometry relative="1" as="geometry" />
        </mxCell>
        <mxCell id="YSEfwSpDA4RHuo-UK7Tc-160" value="CDC1.0 Sync Job" style="rounded=1;whiteSpace=wrap;html=1;arcSize=12;fillColor=#cce5ff;strokeColor=none;" vertex="1" parent="1">
          <mxGeometry x="720" y="2080" width="82" height="50" as="geometry" />
        </mxCell>
        <mxCell id="YSEfwSpDA4RHuo-UK7Tc-161" value="&lt;div style=&quot;font-size: 10px;&quot;&gt;&lt;span style=&quot;color: rgb(23, 43, 77); font-family: -apple-system, &amp;quot;system-ui&amp;quot;, &amp;quot;Segoe UI&amp;quot;, Roboto, Oxygen, Ubuntu, &amp;quot;Fira Sans&amp;quot;, &amp;quot;Droid Sans&amp;quot;, &amp;quot;Helvetica Neue&amp;quot;, sans-serif; font-size: 14px; letter-spacing: -0.07px; text-align: left; white-space-collapse: preserve; background-color: rgb(255, 255, 255);&quot;&gt;STG_B_CAMP_RESP&lt;/span&gt;&lt;/div&gt;" style="text;html=1;align=center;verticalAlign=middle;whiteSpace=wrap;rounded=0;fillColor=#f5f5f5;fontColor=#333333;strokeColor=#666666;dashed=1;" vertex="1" parent="1">
          <mxGeometry x="934.5" y="2365" width="210" height="40" as="geometry" />
        </mxCell>
        <mxCell id="YSEfwSpDA4RHuo-UK7Tc-165" value="" style="group;fillColor=#d5e8d4;strokeColor=none;container=0;" vertex="1" connectable="0" parent="1">
          <mxGeometry x="492" y="2096" width="62" height="80" as="geometry" />
        </mxCell>
        <mxCell id="YSEfwSpDA4RHuo-UK7Tc-166" value="" style="group;fillColor=#d5e8d4;strokeColor=none;container=0;" vertex="1" connectable="0" parent="1">
          <mxGeometry x="500" y="2500" width="62" height="80" as="geometry" />
        </mxCell>
        <mxCell id="YSEfwSpDA4RHuo-UK7Tc-167" value="" style="group;fontStyle=1;fillColor=#d5e8d4;strokeColor=none;container=0;" vertex="1" connectable="0" parent="1">
          <mxGeometry x="493" y="2310" width="62" height="80" as="geometry" />
        </mxCell>
        <mxCell id="YSEfwSpDA4RHuo-UK7Tc-168" value="" style="rounded=0;whiteSpace=wrap;html=1;rotation=90;container=0;fillColor=#FF9933;strokeColor=none;" vertex="1" parent="1">
          <mxGeometry x="482" y="2105" width="80" height="60" as="geometry" />
        </mxCell>
        <mxCell id="YSEfwSpDA4RHuo-UK7Tc-169" value="External Catalog - CDC" style="text;html=1;align=center;verticalAlign=middle;whiteSpace=wrap;rounded=0;container=0;" vertex="1" parent="1">
          <mxGeometry x="494" y="2121" width="60" height="30" as="geometry" />
        </mxCell>
        <mxCell id="YSEfwSpDA4RHuo-UK7Tc-170" value="" style="rounded=0;whiteSpace=wrap;html=1;rotation=90;container=0;fillColor=#FF9933;strokeColor=none;" vertex="1" parent="1">
          <mxGeometry x="490" y="2510" width="80" height="60" as="geometry" />
        </mxCell>
        <mxCell id="YSEfwSpDA4RHuo-UK7Tc-171" value="External Catalog - Engagement" style="text;html=1;align=center;verticalAlign=middle;whiteSpace=wrap;rounded=0;container=0;" vertex="1" parent="1">
          <mxGeometry x="502" y="2525" width="60" height="30" as="geometry" />
        </mxCell>
        <mxCell id="YSEfwSpDA4RHuo-UK7Tc-172" value="" style="rounded=0;whiteSpace=wrap;html=1;rotation=90;container=0;fillColor=#FF9933;strokeColor=none;" vertex="1" parent="1">
          <mxGeometry x="483" y="2320" width="80" height="60" as="geometry" />
        </mxCell>
        <mxCell id="YSEfwSpDA4RHuo-UK7Tc-173" value="External Catalog - Workflow" style="text;html=1;align=center;verticalAlign=middle;whiteSpace=wrap;rounded=0;container=0;" vertex="1" parent="1">
          <mxGeometry x="495" y="2335" width="60" height="30" as="geometry" />
        </mxCell>
        <mxCell id="YSEfwSpDA4RHuo-UK7Tc-174" style="edgeStyle=orthogonalEdgeStyle;rounded=0;orthogonalLoop=1;jettySize=auto;html=1;entryX=0;entryY=0.5;entryDx=0;entryDy=0;entryPerimeter=0;" edge="1" parent="1" source="YSEfwSpDA4RHuo-UK7Tc-169" target="YSEfwSpDA4RHuo-UK7Tc-163">
          <mxGeometry relative="1" as="geometry" />
        </mxCell>
        <mxCell id="YSEfwSpDA4RHuo-UK7Tc-175" style="edgeStyle=orthogonalEdgeStyle;rounded=0;orthogonalLoop=1;jettySize=auto;html=1;entryX=0;entryY=0.5;entryDx=0;entryDy=0;entryPerimeter=0;" edge="1" parent="1" source="YSEfwSpDA4RHuo-UK7Tc-173" target="YSEfwSpDA4RHuo-UK7Tc-163">
          <mxGeometry relative="1" as="geometry" />
        </mxCell>
        <mxCell id="YSEfwSpDA4RHuo-UK7Tc-176" style="edgeStyle=orthogonalEdgeStyle;rounded=0;orthogonalLoop=1;jettySize=auto;html=1;entryX=0;entryY=0.5;entryDx=0;entryDy=0;entryPerimeter=0;" edge="1" parent="1" source="YSEfwSpDA4RHuo-UK7Tc-170" target="YSEfwSpDA4RHuo-UK7Tc-163">
          <mxGeometry relative="1" as="geometry" />
        </mxCell>
        <mxCell id="YSEfwSpDA4RHuo-UK7Tc-177" style="edgeStyle=orthogonalEdgeStyle;rounded=0;orthogonalLoop=1;jettySize=auto;html=1;" edge="1" parent="1">
          <mxGeometry relative="1" as="geometry">
            <mxPoint x="490" y="2350" as="targetPoint" />
            <mxPoint x="470" y="2350" as="sourcePoint" />
          </mxGeometry>
        </mxCell>
        <mxCell id="YSEfwSpDA4RHuo-UK7Tc-178" style="edgeStyle=orthogonalEdgeStyle;rounded=0;orthogonalLoop=1;jettySize=auto;html=1;" edge="1" parent="1">
          <mxGeometry relative="1" as="geometry">
            <mxPoint x="500" y="2540" as="targetPoint" />
            <mxPoint x="480" y="2540" as="sourcePoint" />
          </mxGeometry>
        </mxCell>
        <mxCell id="YSEfwSpDA4RHuo-UK7Tc-179" style="edgeStyle=orthogonalEdgeStyle;rounded=0;orthogonalLoop=1;jettySize=auto;html=1;" edge="1" parent="1">
          <mxGeometry relative="1" as="geometry">
            <mxPoint x="483" y="2140" as="targetPoint" />
            <mxPoint x="463" y="2140" as="sourcePoint" />
          </mxGeometry>
        </mxCell>
        <mxCell id="YSEfwSpDA4RHuo-UK7Tc-183" value="2" style="ellipse;whiteSpace=wrap;html=1;aspect=fixed;" vertex="1" parent="1">
          <mxGeometry x="890" y="2296" width="30" height="30" as="geometry" />
        </mxCell>
        <mxCell id="YSEfwSpDA4RHuo-UK7Tc-185" value="1" style="ellipse;whiteSpace=wrap;html=1;aspect=fixed;" vertex="1" parent="1">
          <mxGeometry x="890" y="2250" width="30" height="30" as="geometry" />
        </mxCell>
        <mxCell id="YSEfwSpDA4RHuo-UK7Tc-186" value="3" style="ellipse;whiteSpace=wrap;html=1;aspect=fixed;" vertex="1" parent="1">
          <mxGeometry x="890" y="2355" width="30" height="30" as="geometry" />
        </mxCell>
        <mxCell id="YSEfwSpDA4RHuo-UK7Tc-187" style="edgeStyle=orthogonalEdgeStyle;rounded=0;orthogonalLoop=1;jettySize=auto;html=1;entryX=0;entryY=0.5;entryDx=0;entryDy=0;" edge="1" parent="1" source="YSEfwSpDA4RHuo-UK7Tc-194" target="YSEfwSpDA4RHuo-UK7Tc-157">
          <mxGeometry relative="1" as="geometry" />
        </mxCell>
        <mxCell id="YSEfwSpDA4RHuo-UK7Tc-188" value="4" style="ellipse;whiteSpace=wrap;html=1;aspect=fixed;" vertex="1" parent="1">
          <mxGeometry x="890" y="2429" width="30" height="30" as="geometry" />
        </mxCell>
        <mxCell id="YSEfwSpDA4RHuo-UK7Tc-189" value="1. CDC Table&lt;div&gt;&lt;span style=&quot;color: rgb(23, 43, 77); font-family: -apple-system, &amp;quot;system-ui&amp;quot;, &amp;quot;Segoe UI&amp;quot;, Roboto, Oxygen, Ubuntu, &amp;quot;Fira Sans&amp;quot;, &amp;quot;Droid Sans&amp;quot;, &amp;quot;Helvetica Neue&amp;quot;, sans-serif; font-size: 14px; letter-spacing: -0.07px; white-space-collapse: preserve; background-color: rgb(255, 255, 255);&quot;&gt;CUSTOMER_MKOFFR_PROMO&lt;/span&gt;&lt;br style=&quot;box-sizing: border-box; color: rgb(23, 43, 77); font-family: -apple-system, &amp;quot;system-ui&amp;quot;, &amp;quot;Segoe UI&amp;quot;, Roboto, Oxygen, Ubuntu, &amp;quot;Fira Sans&amp;quot;, &amp;quot;Droid Sans&amp;quot;, &amp;quot;Helvetica Neue&amp;quot;, sans-serif; font-size: 14px; letter-spacing: -0.07px; white-space-collapse: preserve; background-color: rgb(255, 255, 255);&quot;&gt;&lt;span style=&quot;color: rgb(23, 43, 77); font-family: -apple-system, &amp;quot;system-ui&amp;quot;, &amp;quot;Segoe UI&amp;quot;, Roboto, Oxygen, Ubuntu, &amp;quot;Fira Sans&amp;quot;, &amp;quot;Droid Sans&amp;quot;, &amp;quot;Helvetica Neue&amp;quot;, sans-serif; font-size: 14px; letter-spacing: -0.07px; white-space-collapse: preserve; background-color: rgb(255, 255, 255);&quot;&gt;CUSTOMER_MARKETING_OFFER&lt;/span&gt;&lt;br style=&quot;box-sizing: border-box; color: rgb(23, 43, 77); font-family: -apple-system, &amp;quot;system-ui&amp;quot;, &amp;quot;Segoe UI&amp;quot;, Roboto, Oxygen, Ubuntu, &amp;quot;Fira Sans&amp;quot;, &amp;quot;Droid Sans&amp;quot;, &amp;quot;Helvetica Neue&amp;quot;, sans-serif; font-size: 14px; letter-spacing: -0.07px; white-space-collapse: preserve; background-color: rgb(255, 255, 255);&quot;&gt;&lt;span style=&quot;color: rgb(23, 43, 77); font-family: -apple-system, &amp;quot;system-ui&amp;quot;, &amp;quot;Segoe UI&amp;quot;, Roboto, Oxygen, Ubuntu, &amp;quot;Fira Sans&amp;quot;, &amp;quot;Droid Sans&amp;quot;, &amp;quot;Helvetica Neue&amp;quot;, sans-serif; font-size: 14px; letter-spacing: -0.07px; white-space-collapse: preserve; background-color: rgb(255, 255, 255);&quot;&gt;CUSTOMER_USER&lt;/span&gt;&lt;br style=&quot;box-sizing: border-box; color: rgb(23, 43, 77); font-family: -apple-system, &amp;quot;system-ui&amp;quot;, &amp;quot;Segoe UI&amp;quot;, Roboto, Oxygen, Ubuntu, &amp;quot;Fira Sans&amp;quot;, &amp;quot;Droid Sans&amp;quot;, &amp;quot;Helvetica Neue&amp;quot;, sans-serif; font-size: 14px; letter-spacing: -0.07px; white-space-collapse: preserve; background-color: rgb(255, 255, 255);&quot;&gt;&lt;span style=&quot;color: rgb(23, 43, 77); font-family: -apple-system, &amp;quot;system-ui&amp;quot;, &amp;quot;Segoe UI&amp;quot;, Roboto, Oxygen, Ubuntu, &amp;quot;Fira Sans&amp;quot;, &amp;quot;Droid Sans&amp;quot;, &amp;quot;Helvetica Neue&amp;quot;, sans-serif; font-size: 14px; letter-spacing: -0.07px; white-space-collapse: preserve; background-color: rgb(255, 255, 255);&quot;&gt;CUSTOMER_BU&lt;/span&gt;&lt;/div&gt;" style="text;html=1;align=left;verticalAlign=top;whiteSpace=wrap;rounded=0;" vertex="1" parent="1">
          <mxGeometry x="170" y="2690" width="220" height="100" as="geometry" />
        </mxCell>
        <mxCell id="YSEfwSpDA4RHuo-UK7Tc-190" value="&lt;font face=&quot;Helvetica&quot;&gt;2. CDC Table&lt;/font&gt;&lt;div&gt;&lt;font face=&quot;Helvetica&quot;&gt;&lt;span style=&quot;color: rgb(23, 43, 77); font-size: 14px; letter-spacing: -0.07px; white-space-collapse: preserve; background-color: rgb(255, 255, 255);&quot;&gt;CUSTOMER_CAMPAIGN_OFFER&lt;/span&gt;&lt;br style=&quot;box-sizing: border-box; color: rgb(23, 43, 77); font-size: 14px; letter-spacing: -0.07px; white-space-collapse: preserve; background-color: rgb(255, 255, 255);&quot;&gt;&lt;span style=&quot;color: rgb(23, 43, 77); font-size: 14px; letter-spacing: -0.07px; white-space-collapse: preserve; background-color: rgb(255, 255, 255);&quot;&gt;CUSTOMER_MARKETING_OFFER&lt;/span&gt;&lt;br style=&quot;box-sizing: border-box; color: rgb(23, 43, 77); font-size: 14px; letter-spacing: -0.07px; white-space-collapse: preserve; background-color: rgb(255, 255, 255);&quot;&gt;&lt;span style=&quot;color: rgb(23, 43, 77); font-size: 14px; letter-spacing: -0.07px; white-space-collapse: preserve; background-color: rgb(255, 255, 255);&quot;&gt;CUSTOMER_CAMPAIGN&lt;/span&gt;&lt;br style=&quot;box-sizing: border-box; color: rgb(23, 43, 77); font-size: 14px; letter-spacing: -0.07px; white-space-collapse: preserve; background-color: rgb(255, 255, 255);&quot;&gt;&lt;span style=&quot;color: rgb(23, 43, 77); font-size: 14px; letter-spacing: -0.07px; white-space-collapse: preserve; background-color: rgb(255, 255, 255);&quot;&gt;CUSTOMER_BU&lt;/span&gt;&lt;/font&gt;&lt;/div&gt;&lt;div&gt;&lt;span style=&quot;color: rgb(23, 43, 77); font-family: -apple-system, &amp;quot;system-ui&amp;quot;, &amp;quot;Segoe UI&amp;quot;, Roboto, Oxygen, Ubuntu, &amp;quot;Fira Sans&amp;quot;, &amp;quot;Droid Sans&amp;quot;, &amp;quot;Helvetica Neue&amp;quot;, sans-serif; font-size: 14px; letter-spacing: -0.07px; white-space-collapse: preserve; background-color: rgb(255, 255, 255);&quot;&gt;&lt;br&gt;&lt;/span&gt;&lt;/div&gt;" style="text;html=1;align=left;verticalAlign=top;whiteSpace=wrap;rounded=0;" vertex="1" parent="1">
          <mxGeometry x="170" y="2803" width="336" height="120" as="geometry" />
        </mxCell>
        <mxCell id="YSEfwSpDA4RHuo-UK7Tc-191" value="3. CDC Table&lt;div&gt;&lt;span style=&quot;color: rgb(23, 43, 77); font-family: -apple-system, &amp;quot;system-ui&amp;quot;, &amp;quot;Segoe UI&amp;quot;, Roboto, Oxygen, Ubuntu, &amp;quot;Fira Sans&amp;quot;, &amp;quot;Droid Sans&amp;quot;, &amp;quot;Helvetica Neue&amp;quot;, sans-serif; font-size: 14px; letter-spacing: -0.07px; white-space-collapse: preserve; background-color: rgb(255, 255, 255);&quot;&gt;CUSTOMER_COMMUNICATION&lt;/span&gt;&lt;br style=&quot;box-sizing: border-box; color: rgb(23, 43, 77); font-family: -apple-system, &amp;quot;system-ui&amp;quot;, &amp;quot;Segoe UI&amp;quot;, Roboto, Oxygen, Ubuntu, &amp;quot;Fira Sans&amp;quot;, &amp;quot;Droid Sans&amp;quot;, &amp;quot;Helvetica Neue&amp;quot;, sans-serif; font-size: 14px; letter-spacing: -0.07px; white-space-collapse: preserve; background-color: rgb(255, 255, 255);&quot;&gt;&lt;span style=&quot;color: rgb(23, 43, 77); font-family: -apple-system, &amp;quot;system-ui&amp;quot;, &amp;quot;Segoe UI&amp;quot;, Roboto, Oxygen, Ubuntu, &amp;quot;Fira Sans&amp;quot;, &amp;quot;Droid Sans&amp;quot;, &amp;quot;Helvetica Neue&amp;quot;, sans-serif; font-size: 14px; letter-spacing: -0.07px; white-space-collapse: preserve; background-color: rgb(255, 255, 255);&quot;&gt;CUSTOMER_CAMPAIGN_TREATMENT&lt;/span&gt;&lt;br style=&quot;box-sizing: border-box; color: rgb(23, 43, 77); font-family: -apple-system, &amp;quot;system-ui&amp;quot;, &amp;quot;Segoe UI&amp;quot;, Roboto, Oxygen, Ubuntu, &amp;quot;Fira Sans&amp;quot;, &amp;quot;Droid Sans&amp;quot;, &amp;quot;Helvetica Neue&amp;quot;, sans-serif; font-size: 14px; letter-spacing: -0.07px; white-space-collapse: preserve; background-color: rgb(255, 255, 255);&quot;&gt;&lt;span style=&quot;color: rgb(23, 43, 77); font-family: -apple-system, &amp;quot;system-ui&amp;quot;, &amp;quot;Segoe UI&amp;quot;, Roboto, Oxygen, Ubuntu, &amp;quot;Fira Sans&amp;quot;, &amp;quot;Droid Sans&amp;quot;, &amp;quot;Helvetica Neue&amp;quot;, sans-serif; font-size: 14px; letter-spacing: -0.07px; white-space-collapse: preserve; background-color: rgb(255, 255, 255);&quot;&gt;CUSTOMER_CAMPAIGN_OFFER&lt;/span&gt;&lt;br style=&quot;box-sizing: border-box; color: rgb(23, 43, 77); font-family: -apple-system, &amp;quot;system-ui&amp;quot;, &amp;quot;Segoe UI&amp;quot;, Roboto, Oxygen, Ubuntu, &amp;quot;Fira Sans&amp;quot;, &amp;quot;Droid Sans&amp;quot;, &amp;quot;Helvetica Neue&amp;quot;, sans-serif; font-size: 14px; letter-spacing: -0.07px; white-space-collapse: preserve; background-color: rgb(255, 255, 255);&quot;&gt;&lt;span style=&quot;color: rgb(23, 43, 77); font-family: -apple-system, &amp;quot;system-ui&amp;quot;, &amp;quot;Segoe UI&amp;quot;, Roboto, Oxygen, Ubuntu, &amp;quot;Fira Sans&amp;quot;, &amp;quot;Droid Sans&amp;quot;, &amp;quot;Helvetica Neue&amp;quot;, sans-serif; font-size: 14px; letter-spacing: -0.07px; white-space-collapse: preserve; background-color: rgb(255, 255, 255);&quot;&gt;CUSTOMER_COMM_DTL&lt;/span&gt;&lt;br style=&quot;box-sizing: border-box; color: rgb(23, 43, 77); font-family: -apple-system, &amp;quot;system-ui&amp;quot;, &amp;quot;Segoe UI&amp;quot;, Roboto, Oxygen, Ubuntu, &amp;quot;Fira Sans&amp;quot;, &amp;quot;Droid Sans&amp;quot;, &amp;quot;Helvetica Neue&amp;quot;, sans-serif; font-size: 14px; letter-spacing: -0.07px; white-space-collapse: preserve; background-color: rgb(255, 255, 255);&quot;&gt;&lt;span style=&quot;color: rgb(23, 43, 77); font-family: -apple-system, &amp;quot;system-ui&amp;quot;, &amp;quot;Segoe UI&amp;quot;, Roboto, Oxygen, Ubuntu, &amp;quot;Fira Sans&amp;quot;, &amp;quot;Droid Sans&amp;quot;, &amp;quot;Helvetica Neue&amp;quot;, sans-serif; font-size: 14px; letter-spacing: -0.07px; white-space-collapse: preserve; background-color: rgb(255, 255, 255);&quot;&gt;CUSTOMER_LST_OF_VAL&lt;/span&gt;&lt;br style=&quot;box-sizing: border-box; color: rgb(23, 43, 77); font-family: -apple-system, &amp;quot;system-ui&amp;quot;, &amp;quot;Segoe UI&amp;quot;, Roboto, Oxygen, Ubuntu, &amp;quot;Fira Sans&amp;quot;, &amp;quot;Droid Sans&amp;quot;, &amp;quot;Helvetica Neue&amp;quot;, sans-serif; font-size: 14px; letter-spacing: -0.07px; white-space-collapse: preserve; background-color: rgb(255, 255, 255);&quot;&gt;&lt;span style=&quot;color: rgb(23, 43, 77); font-family: -apple-system, &amp;quot;system-ui&amp;quot;, &amp;quot;Segoe UI&amp;quot;, Roboto, Oxygen, Ubuntu, &amp;quot;Fira Sans&amp;quot;, &amp;quot;Droid Sans&amp;quot;, &amp;quot;Helvetica Neue&amp;quot;, sans-serif; font-size: 14px; letter-spacing: -0.07px; white-space-collapse: preserve; background-color: rgb(255, 255, 255);&quot;&gt;CUSTOMER_BU&lt;/span&gt;&lt;/div&gt;&lt;div&gt;&lt;span style=&quot;color: rgb(23, 43, 77); font-family: -apple-system, &amp;quot;system-ui&amp;quot;, &amp;quot;Segoe UI&amp;quot;, Roboto, Oxygen, Ubuntu, &amp;quot;Fira Sans&amp;quot;, &amp;quot;Droid Sans&amp;quot;, &amp;quot;Helvetica Neue&amp;quot;, sans-serif; font-size: 14px; letter-spacing: -0.07px; white-space-collapse: preserve; background-color: rgb(255, 255, 255);&quot;&gt;&lt;br&gt;&lt;/span&gt;&lt;/div&gt;&lt;div&gt;&lt;span style=&quot;color: rgb(23, 43, 77); font-family: -apple-system, &amp;quot;system-ui&amp;quot;, &amp;quot;Segoe UI&amp;quot;, Roboto, Oxygen, Ubuntu, &amp;quot;Fira Sans&amp;quot;, &amp;quot;Droid Sans&amp;quot;, &amp;quot;Helvetica Neue&amp;quot;, sans-serif; font-size: 14px; letter-spacing: -0.07px; white-space-collapse: preserve; background-color: rgb(255, 255, 255);&quot;&gt;+&lt;/span&gt;&lt;/div&gt;&lt;div&gt;&lt;span style=&quot;color: rgb(23, 43, 77); font-family: -apple-system, &amp;quot;system-ui&amp;quot;, &amp;quot;Segoe UI&amp;quot;, Roboto, Oxygen, Ubuntu, &amp;quot;Fira Sans&amp;quot;, &amp;quot;Droid Sans&amp;quot;, &amp;quot;Helvetica Neue&amp;quot;, sans-serif; font-size: 14px; letter-spacing: -0.07px; white-space-collapse: preserve; background-color: rgb(255, 255, 255);&quot;&gt;&lt;br&gt;&lt;/span&gt;&lt;/div&gt;&lt;div&gt;&lt;span style=&quot;color: rgb(23, 43, 77); font-family: -apple-system, &amp;quot;system-ui&amp;quot;, &amp;quot;Segoe UI&amp;quot;, Roboto, Oxygen, Ubuntu, &amp;quot;Fira Sans&amp;quot;, &amp;quot;Droid Sans&amp;quot;, &amp;quot;Helvetica Neue&amp;quot;, sans-serif; font-size: 14px; letter-spacing: -0.07px; white-space-collapse: preserve; background-color: rgb(255, 255, 255);&quot;&gt;Engagement Table&lt;/span&gt;&lt;/div&gt;" style="text;html=1;align=left;verticalAlign=top;whiteSpace=wrap;rounded=0;" vertex="1" parent="1">
          <mxGeometry x="473" y="2690" width="220" height="100" as="geometry" />
        </mxCell>
        <mxCell id="YSEfwSpDA4RHuo-UK7Tc-192" value="4. CDC Table&lt;div&gt;&lt;font face=&quot;-apple-system, system-ui, Segoe UI, Roboto, Oxygen, Ubuntu, Fira Sans, Droid Sans, Helvetica Neue, sans-serif&quot; color=&quot;#172b4d&quot;&gt;&lt;span style=&quot;font-size: 14px; letter-spacing: -0.07px; white-space-collapse: preserve;&quot;&gt;CUSTOMER_CAMPAIGN_CONTACT&lt;br/&gt;CUSTOMER_CAMPAIGN_TREATMENT&lt;br/&gt;CUSTOMER_CAMPAIGN_OFFER&lt;br/&gt;CUSTOMER_CAMP_LD_WAVE&lt;br/&gt;CUSTOMER_CALL_LST&lt;br/&gt;CUSTOMER_BU&lt;/span&gt;&lt;/font&gt;&lt;/div&gt;&lt;div&gt;&lt;span style=&quot;color: rgb(23, 43, 77); font-family: -apple-system, &amp;quot;system-ui&amp;quot;, &amp;quot;Segoe UI&amp;quot;, Roboto, Oxygen, Ubuntu, &amp;quot;Fira Sans&amp;quot;, &amp;quot;Droid Sans&amp;quot;, &amp;quot;Helvetica Neue&amp;quot;, sans-serif; font-size: 14px; letter-spacing: -0.07px; white-space-collapse: preserve; background-color: rgb(255, 255, 255);&quot;&gt;&lt;br&gt;&lt;/span&gt;&lt;/div&gt;&lt;div&gt;&lt;span style=&quot;color: rgb(23, 43, 77); font-family: -apple-system, &amp;quot;system-ui&amp;quot;, &amp;quot;Segoe UI&amp;quot;, Roboto, Oxygen, Ubuntu, &amp;quot;Fira Sans&amp;quot;, &amp;quot;Droid Sans&amp;quot;, &amp;quot;Helvetica Neue&amp;quot;, sans-serif; font-size: 14px; letter-spacing: -0.07px; white-space-collapse: preserve; background-color: rgb(255, 255, 255);&quot;&gt;+&lt;/span&gt;&lt;/div&gt;&lt;div&gt;&lt;span style=&quot;color: rgb(23, 43, 77); font-family: -apple-system, &amp;quot;system-ui&amp;quot;, &amp;quot;Segoe UI&amp;quot;, Roboto, Oxygen, Ubuntu, &amp;quot;Fira Sans&amp;quot;, &amp;quot;Droid Sans&amp;quot;, &amp;quot;Helvetica Neue&amp;quot;, sans-serif; font-size: 14px; letter-spacing: -0.07px; white-space-collapse: preserve; background-color: rgb(255, 255, 255);&quot;&gt;&lt;br&gt;&lt;/span&gt;&lt;/div&gt;&lt;div&gt;&lt;span style=&quot;color: rgb(23, 43, 77); font-family: -apple-system, &amp;quot;system-ui&amp;quot;, &amp;quot;Segoe UI&amp;quot;, Roboto, Oxygen, Ubuntu, &amp;quot;Fira Sans&amp;quot;, &amp;quot;Droid Sans&amp;quot;, &amp;quot;Helvetica Neue&amp;quot;, sans-serif; font-size: 14px; letter-spacing: -0.07px; white-space-collapse: preserve; background-color: rgb(255, 255, 255);&quot;&gt;Engagement Table&lt;/span&gt;&lt;/div&gt;" style="text;html=1;align=left;verticalAlign=top;whiteSpace=wrap;rounded=0;" vertex="1" parent="1">
          <mxGeometry x="473" y="2944" width="220" height="100" as="geometry" />
        </mxCell>
        <mxCell id="YSEfwSpDA4RHuo-UK7Tc-193" value="" style="edgeStyle=orthogonalEdgeStyle;rounded=0;orthogonalLoop=1;jettySize=auto;html=1;entryX=0;entryY=0.5;entryDx=0;entryDy=0;" edge="1" parent="1" source="YSEfwSpDA4RHuo-UK7Tc-163" target="YSEfwSpDA4RHuo-UK7Tc-194">
          <mxGeometry relative="1" as="geometry">
            <mxPoint x="673" y="2350" as="sourcePoint" />
            <mxPoint x="935" y="2456" as="targetPoint" />
          </mxGeometry>
        </mxCell>
        <mxCell id="YSEfwSpDA4RHuo-UK7Tc-198" style="edgeStyle=orthogonalEdgeStyle;rounded=0;orthogonalLoop=1;jettySize=auto;html=1;" edge="1" parent="1" source="YSEfwSpDA4RHuo-UK7Tc-194" target="YSEfwSpDA4RHuo-UK7Tc-161">
          <mxGeometry relative="1" as="geometry" />
        </mxCell>
        <mxCell id="YSEfwSpDA4RHuo-UK7Tc-200" style="edgeStyle=orthogonalEdgeStyle;rounded=0;orthogonalLoop=1;jettySize=auto;html=1;entryX=0;entryY=0.5;entryDx=0;entryDy=0;" edge="1" parent="1" source="YSEfwSpDA4RHuo-UK7Tc-194" target="YSEfwSpDA4RHuo-UK7Tc-199">
          <mxGeometry relative="1" as="geometry" />
        </mxCell>
        <mxCell id="YSEfwSpDA4RHuo-UK7Tc-194" value="CDC1.0 Sync Job" style="rounded=1;whiteSpace=wrap;html=1;arcSize=12;fillColor=#cce5ff;strokeColor=none;" vertex="1" parent="1">
          <mxGeometry x="730" y="2325" width="82" height="50" as="geometry" />
        </mxCell>
        <mxCell id="YSEfwSpDA4RHuo-UK7Tc-199" value="&lt;div style=&quot;font-size: 10px;&quot;&gt;&lt;span style=&quot;font-family: -apple-system, &amp;quot;system-ui&amp;quot;, &amp;quot;Segoe UI&amp;quot;, Roboto, Oxygen, Ubuntu, &amp;quot;Fira Sans&amp;quot;, &amp;quot;Droid Sans&amp;quot;, &amp;quot;Helvetica Neue&amp;quot;, sans-serif; font-size: 14px; letter-spacing: -0.07px; text-align: start; white-space-collapse: preserve; background-color: rgb(255, 255, 255);&quot;&gt;&lt;b style=&quot;&quot;&gt;&lt;font style=&quot;color: rgb(255, 0, 0);&quot;&gt;&amp;lt;new table&amp;gt;&lt;/font&gt;&lt;/b&gt;&lt;/span&gt;&lt;/div&gt;&lt;div style=&quot;font-size: 10px;&quot;&gt;&lt;span style=&quot;color: rgb(23, 43, 77); font-family: -apple-system, &amp;quot;system-ui&amp;quot;, &amp;quot;Segoe UI&amp;quot;, Roboto, Oxygen, Ubuntu, &amp;quot;Fira Sans&amp;quot;, &amp;quot;Droid Sans&amp;quot;, &amp;quot;Helvetica Neue&amp;quot;, sans-serif; font-size: 14px; letter-spacing: -0.07px; text-align: start; white-space-collapse: preserve; background-color: rgb(255, 255, 255);&quot;&gt;STG_B_CAMP_OFFER_CIA&lt;/span&gt;&lt;/div&gt;" style="text;html=1;align=center;verticalAlign=middle;whiteSpace=wrap;rounded=0;fillColor=#f5f5f5;fontColor=#333333;strokeColor=#666666;dashed=1;" vertex="1" parent="1">
          <mxGeometry x="932.25" y="2490" width="210" height="40" as="geometry" />
        </mxCell>
        <mxCell id="YSEfwSpDA4RHuo-UK7Tc-201" value="5" style="ellipse;whiteSpace=wrap;html=1;aspect=fixed;fontStyle=1" vertex="1" parent="1">
          <mxGeometry x="890" y="2480" width="30" height="30" as="geometry" />
        </mxCell>
        <mxCell id="YSEfwSpDA4RHuo-UK7Tc-202" value="5. Workflow table（CIA Data）&lt;div&gt;&lt;span style=&quot;color: rgb(23, 43, 77); font-size: 14px; white-space: pre; background-color: rgba(9, 30, 66, 0.06);&quot;&gt;AIMAS_CAMPAIGN_WORKFLOW_ELEMENT&lt;/span&gt;&lt;/div&gt;" style="text;html=1;align=left;verticalAlign=top;whiteSpace=wrap;rounded=0;" vertex="1" parent="1">
          <mxGeometry x="801" y="2690" width="342" height="100" as="geometry" />
        </mxCell>
        <mxCell id="YSEfwSpDA4RHuo-UK7Tc-163" value="" style="shape=cylinder3;whiteSpace=wrap;html=1;boundedLbl=1;backgroundOutline=1;size=15;fillColor=#FF9933;strokeColor=none;" vertex="1" parent="1">
          <mxGeometry x="610" y="2310" width="70" height="80" as="geometry" />
        </mxCell>
        <mxCell id="YSEfwSpDA4RHuo-UK7Tc-164" value="StarRocks" style="text;html=1;align=center;verticalAlign=middle;whiteSpace=wrap;rounded=0;" vertex="1" parent="1">
          <mxGeometry x="610" y="2340" width="60" height="30" as="geometry" />
        </mxCell>
        <mxCell id="YSEfwSpDA4RHuo-UK7Tc-203" value="Sync Data indicator" style="text;html=1;align=left;verticalAlign=middle;whiteSpace=wrap;rounded=0;fontStyle=1;fontSize=13;" vertex="1" parent="1">
          <mxGeometry x="150" y="2650" width="165" height="30" as="geometry" />
        </mxCell>
      </root>
    </mxGraphModel>
  </diagram>
</mxfile>
